<mxfile host="app.diagrams.net" modified="2024-04-07T21:52:57.444Z" agent="Mozilla/5.0 (X11; Ubuntu; Linux x86_64; rv:123.0) Gecko/20100101 Firefox/123.0" etag="ZgSjg5f-eAz9cVuruGCJ" version="24.2.2" type="device">
  <diagram name="Page-1" id="EusNAs9UvcGAw2jEE7ZU">
    <mxGraphModel dx="5630" dy="3840" grid="1" gridSize="10" guides="1" tooltips="1" connect="1" arrows="1" fold="1" page="1" pageScale="1" pageWidth="850" pageHeight="1100" background="#ffffff" math="0" shadow="0">
      <root>
        <mxCell id="0" />
        <mxCell id="1" parent="0" />
        <mxCell id="cPXVCGKTlWXcmNsY_Yiw-56" value="" style="rounded=1;whiteSpace=wrap;html=1;fontFamily=Helvetica;fontSize=11;fontColor=default;labelBackgroundColor=default;fillColor=none;strokeColor=none;" parent="1" vertex="1">
          <mxGeometry x="-101" y="-218" width="1080" height="1648" as="geometry" />
        </mxCell>
        <mxCell id="zWW35y1L2ENobpvPabgp-231" value="" style="rounded=1;whiteSpace=wrap;html=1;fontFamily=Helvetica;fontSize=11;fontColor=default;labelBackgroundColor=default;fillColor=none;strokeColor=none;" parent="1" vertex="1">
          <mxGeometry x="-150" y="-218" width="1080" height="1648" as="geometry" />
        </mxCell>
        <mxCell id="zWW35y1L2ENobpvPabgp-2" value="" style="shape=table;startSize=0;container=1;collapsible=0;childLayout=tableLayout;fontSize=7;" parent="1" vertex="1">
          <mxGeometry x="40" y="360" width="880" height="30" as="geometry" />
        </mxCell>
        <mxCell id="zWW35y1L2ENobpvPabgp-3" value="" style="shape=tableRow;horizontal=0;startSize=0;swimlaneHead=0;swimlaneBody=0;strokeColor=inherit;top=0;left=0;bottom=0;right=0;collapsible=0;dropTarget=0;fillColor=none;points=[[0,0.5],[1,0.5]];portConstraint=eastwest;fontSize=16;" parent="zWW35y1L2ENobpvPabgp-2" vertex="1">
          <mxGeometry width="880" height="30" as="geometry" />
        </mxCell>
        <mxCell id="zWW35y1L2ENobpvPabgp-4" value="ArticleID" style="shape=partialRectangle;html=1;whiteSpace=wrap;connectable=0;strokeColor=inherit;overflow=hidden;fillColor=none;top=0;left=0;bottom=0;right=0;pointerEvents=1;fontSize=13;" parent="zWW35y1L2ENobpvPabgp-3" vertex="1">
          <mxGeometry width="110" height="30" as="geometry">
            <mxRectangle width="110" height="30" as="alternateBounds" />
          </mxGeometry>
        </mxCell>
        <mxCell id="zWW35y1L2ENobpvPabgp-5" value="Title" style="shape=partialRectangle;html=1;whiteSpace=wrap;connectable=0;strokeColor=inherit;overflow=hidden;fillColor=none;top=0;left=0;bottom=0;right=0;pointerEvents=1;fontSize=13;" parent="zWW35y1L2ENobpvPabgp-3" vertex="1">
          <mxGeometry x="110" width="110" height="30" as="geometry">
            <mxRectangle width="110" height="30" as="alternateBounds" />
          </mxGeometry>
        </mxCell>
        <mxCell id="zWW35y1L2ENobpvPabgp-6" value="&lt;font style=&quot;font-size: 13px;&quot;&gt;Abstract&lt;/font&gt;" style="shape=partialRectangle;html=1;whiteSpace=wrap;connectable=0;strokeColor=inherit;overflow=hidden;fillColor=none;top=0;left=0;bottom=0;right=0;pointerEvents=1;fontSize=13;" parent="zWW35y1L2ENobpvPabgp-3" vertex="1">
          <mxGeometry x="220" width="110" height="30" as="geometry">
            <mxRectangle width="110" height="30" as="alternateBounds" />
          </mxGeometry>
        </mxCell>
        <mxCell id="zWW35y1L2ENobpvPabgp-22" value="DOI" style="shape=partialRectangle;html=1;whiteSpace=wrap;connectable=0;strokeColor=inherit;overflow=hidden;fillColor=none;top=0;left=0;bottom=0;right=0;pointerEvents=1;fontSize=13;" parent="zWW35y1L2ENobpvPabgp-3" vertex="1">
          <mxGeometry x="330" width="110" height="30" as="geometry">
            <mxRectangle width="110" height="30" as="alternateBounds" />
          </mxGeometry>
        </mxCell>
        <mxCell id="zWW35y1L2ENobpvPabgp-23" value="StartPage" style="shape=partialRectangle;html=1;whiteSpace=wrap;connectable=0;strokeColor=inherit;overflow=hidden;fillColor=none;top=0;left=0;bottom=0;right=0;pointerEvents=1;fontSize=13;" parent="zWW35y1L2ENobpvPabgp-3" vertex="1">
          <mxGeometry x="440" width="110" height="30" as="geometry">
            <mxRectangle width="110" height="30" as="alternateBounds" />
          </mxGeometry>
        </mxCell>
        <mxCell id="zWW35y1L2ENobpvPabgp-24" value="EndPage" style="shape=partialRectangle;html=1;whiteSpace=wrap;connectable=0;strokeColor=inherit;overflow=hidden;fillColor=none;top=0;left=0;bottom=0;right=0;pointerEvents=1;fontSize=13;" parent="zWW35y1L2ENobpvPabgp-3" vertex="1">
          <mxGeometry x="550" width="110" height="30" as="geometry">
            <mxRectangle width="110" height="30" as="alternateBounds" />
          </mxGeometry>
        </mxCell>
        <mxCell id="zWW35y1L2ENobpvPabgp-131" value="JournalID" style="shape=partialRectangle;html=1;whiteSpace=wrap;connectable=0;strokeColor=inherit;overflow=hidden;fillColor=none;top=0;left=0;bottom=0;right=0;pointerEvents=1;fontSize=13;" parent="zWW35y1L2ENobpvPabgp-3" vertex="1">
          <mxGeometry x="660" width="110" height="30" as="geometry">
            <mxRectangle width="110" height="30" as="alternateBounds" />
          </mxGeometry>
        </mxCell>
        <mxCell id="zWW35y1L2ENobpvPabgp-133" value="Volume" style="shape=partialRectangle;html=1;whiteSpace=wrap;connectable=0;strokeColor=inherit;overflow=hidden;fillColor=none;top=0;left=0;bottom=0;right=0;pointerEvents=1;fontSize=13;" parent="zWW35y1L2ENobpvPabgp-3" vertex="1">
          <mxGeometry x="770" width="110" height="30" as="geometry">
            <mxRectangle width="110" height="30" as="alternateBounds" />
          </mxGeometry>
        </mxCell>
        <mxCell id="zWW35y1L2ENobpvPabgp-25" value="Article" style="text;html=1;align=center;verticalAlign=middle;resizable=0;points=[];autosize=1;strokeColor=none;fillColor=none;fontFamily=Helvetica;fontSize=16;fontColor=default;" parent="1" vertex="1">
          <mxGeometry x="40" y="330" width="70" height="30" as="geometry" />
        </mxCell>
        <mxCell id="zWW35y1L2ENobpvPabgp-26" value="User" style="text;html=1;align=center;verticalAlign=middle;resizable=0;points=[];autosize=1;strokeColor=none;fillColor=none;fontFamily=Helvetica;fontSize=16;fontColor=default;" parent="1" vertex="1">
          <mxGeometry x="40" y="690" width="60" height="30" as="geometry" />
        </mxCell>
        <mxCell id="zWW35y1L2ENobpvPabgp-27" value="" style="shape=table;startSize=0;container=1;collapsible=0;childLayout=tableLayout;fontSize=7;" parent="1" vertex="1">
          <mxGeometry x="40" y="720" width="550" height="30.000000000000114" as="geometry" />
        </mxCell>
        <mxCell id="zWW35y1L2ENobpvPabgp-28" value="" style="shape=tableRow;horizontal=0;startSize=0;swimlaneHead=0;swimlaneBody=0;strokeColor=inherit;top=0;left=0;bottom=0;right=0;collapsible=0;dropTarget=0;fillColor=none;points=[[0,0.5],[1,0.5]];portConstraint=eastwest;fontSize=16;" parent="zWW35y1L2ENobpvPabgp-27" vertex="1">
          <mxGeometry width="550" height="30" as="geometry" />
        </mxCell>
        <mxCell id="zWW35y1L2ENobpvPabgp-29" value="UserID" style="shape=partialRectangle;html=1;whiteSpace=wrap;connectable=0;strokeColor=inherit;overflow=hidden;fillColor=none;top=0;left=0;bottom=0;right=0;pointerEvents=1;fontSize=13;" parent="zWW35y1L2ENobpvPabgp-28" vertex="1">
          <mxGeometry width="110" height="30" as="geometry">
            <mxRectangle width="110" height="30" as="alternateBounds" />
          </mxGeometry>
        </mxCell>
        <mxCell id="zWW35y1L2ENobpvPabgp-30" value="Name" style="shape=partialRectangle;html=1;whiteSpace=wrap;connectable=0;strokeColor=inherit;overflow=hidden;fillColor=none;top=0;left=0;bottom=0;right=0;pointerEvents=1;fontSize=13;" parent="zWW35y1L2ENobpvPabgp-28" vertex="1">
          <mxGeometry x="110" width="110" height="30" as="geometry">
            <mxRectangle width="110" height="30" as="alternateBounds" />
          </mxGeometry>
        </mxCell>
        <mxCell id="zWW35y1L2ENobpvPabgp-31" value="Email" style="shape=partialRectangle;html=1;whiteSpace=wrap;connectable=0;strokeColor=inherit;overflow=hidden;fillColor=none;top=0;left=0;bottom=0;right=0;pointerEvents=1;fontSize=13;" parent="zWW35y1L2ENobpvPabgp-28" vertex="1">
          <mxGeometry x="220" width="110" height="30" as="geometry">
            <mxRectangle width="110" height="30" as="alternateBounds" />
          </mxGeometry>
        </mxCell>
        <mxCell id="zWW35y1L2ENobpvPabgp-32" value="Password" style="shape=partialRectangle;html=1;whiteSpace=wrap;connectable=0;strokeColor=inherit;overflow=hidden;fillColor=none;top=0;left=0;bottom=0;right=0;pointerEvents=1;fontSize=13;" parent="zWW35y1L2ENobpvPabgp-28" vertex="1">
          <mxGeometry x="330" width="110" height="30" as="geometry">
            <mxRectangle width="110" height="30" as="alternateBounds" />
          </mxGeometry>
        </mxCell>
        <mxCell id="zWW35y1L2ENobpvPabgp-145" value="InstitutionID" style="shape=partialRectangle;html=1;whiteSpace=wrap;connectable=0;strokeColor=inherit;overflow=hidden;fillColor=none;top=0;left=0;bottom=0;right=0;pointerEvents=1;fontSize=13;" parent="zWW35y1L2ENobpvPabgp-28" vertex="1">
          <mxGeometry x="440" width="110" height="30" as="geometry">
            <mxRectangle width="110" height="30" as="alternateBounds" />
          </mxGeometry>
        </mxCell>
        <mxCell id="zWW35y1L2ENobpvPabgp-35" value="Author" style="text;html=1;align=center;verticalAlign=middle;resizable=0;points=[];autosize=1;strokeColor=none;fillColor=none;fontFamily=Helvetica;fontSize=16;fontColor=default;" parent="1" vertex="1">
          <mxGeometry x="40" y="1050" width="70" height="30" as="geometry" />
        </mxCell>
        <mxCell id="zWW35y1L2ENobpvPabgp-36" value="" style="shape=table;startSize=0;container=1;collapsible=0;childLayout=tableLayout;fontSize=7;" parent="1" vertex="1">
          <mxGeometry x="40" y="1080" width="550" height="30" as="geometry" />
        </mxCell>
        <mxCell id="zWW35y1L2ENobpvPabgp-37" value="" style="shape=tableRow;horizontal=0;startSize=0;swimlaneHead=0;swimlaneBody=0;strokeColor=inherit;top=0;left=0;bottom=0;right=0;collapsible=0;dropTarget=0;fillColor=none;points=[[0,0.5],[1,0.5]];portConstraint=eastwest;fontSize=16;" parent="zWW35y1L2ENobpvPabgp-36" vertex="1">
          <mxGeometry width="550" height="30" as="geometry" />
        </mxCell>
        <mxCell id="zWW35y1L2ENobpvPabgp-38" value="AuthorID" style="shape=partialRectangle;html=1;whiteSpace=wrap;connectable=0;strokeColor=inherit;overflow=hidden;fillColor=none;top=0;left=0;bottom=0;right=0;pointerEvents=1;fontSize=13;" parent="zWW35y1L2ENobpvPabgp-37" vertex="1">
          <mxGeometry width="110" height="30" as="geometry">
            <mxRectangle width="110" height="30" as="alternateBounds" />
          </mxGeometry>
        </mxCell>
        <mxCell id="zWW35y1L2ENobpvPabgp-39" value="Name" style="shape=partialRectangle;html=1;whiteSpace=wrap;connectable=0;strokeColor=inherit;overflow=hidden;fillColor=none;top=0;left=0;bottom=0;right=0;pointerEvents=1;fontSize=13;" parent="zWW35y1L2ENobpvPabgp-37" vertex="1">
          <mxGeometry x="110" width="100" height="30" as="geometry">
            <mxRectangle width="100" height="30" as="alternateBounds" />
          </mxGeometry>
        </mxCell>
        <mxCell id="zWW35y1L2ENobpvPabgp-40" value="Email" style="shape=partialRectangle;html=1;whiteSpace=wrap;connectable=0;strokeColor=inherit;overflow=hidden;fillColor=none;top=0;left=0;bottom=0;right=0;pointerEvents=1;fontSize=13;" parent="zWW35y1L2ENobpvPabgp-37" vertex="1">
          <mxGeometry x="210" width="120" height="30" as="geometry">
            <mxRectangle width="120" height="30" as="alternateBounds" />
          </mxGeometry>
        </mxCell>
        <mxCell id="zWW35y1L2ENobpvPabgp-41" value="ORCID" style="shape=partialRectangle;html=1;whiteSpace=wrap;connectable=0;strokeColor=inherit;overflow=hidden;fillColor=none;top=0;left=0;bottom=0;right=0;pointerEvents=1;fontSize=13;" parent="zWW35y1L2ENobpvPabgp-37" vertex="1">
          <mxGeometry x="330" width="110" height="30" as="geometry">
            <mxRectangle width="110" height="30" as="alternateBounds" />
          </mxGeometry>
        </mxCell>
        <mxCell id="zWW35y1L2ENobpvPabgp-141" value="InstitutionID" style="shape=partialRectangle;html=1;whiteSpace=wrap;connectable=0;strokeColor=inherit;overflow=hidden;fillColor=none;top=0;left=0;bottom=0;right=0;pointerEvents=1;fontSize=13;" parent="zWW35y1L2ENobpvPabgp-37" vertex="1">
          <mxGeometry x="440" width="110" height="30" as="geometry">
            <mxRectangle width="110" height="30" as="alternateBounds" />
          </mxGeometry>
        </mxCell>
        <mxCell id="zWW35y1L2ENobpvPabgp-44" value="Institution" style="text;html=1;align=center;verticalAlign=middle;resizable=0;points=[];autosize=1;strokeColor=none;fillColor=none;fontFamily=Helvetica;fontSize=16;fontColor=default;" parent="1" vertex="1">
          <mxGeometry x="40" y="570" width="90" height="30" as="geometry" />
        </mxCell>
        <mxCell id="zWW35y1L2ENobpvPabgp-45" value="" style="shape=table;startSize=0;container=1;collapsible=0;childLayout=tableLayout;fontSize=7;" parent="1" vertex="1">
          <mxGeometry x="40" y="600" width="330" height="30" as="geometry" />
        </mxCell>
        <mxCell id="zWW35y1L2ENobpvPabgp-46" value="" style="shape=tableRow;horizontal=0;startSize=0;swimlaneHead=0;swimlaneBody=0;strokeColor=inherit;top=0;left=0;bottom=0;right=0;collapsible=0;dropTarget=0;fillColor=none;points=[[0,0.5],[1,0.5]];portConstraint=eastwest;fontSize=16;" parent="zWW35y1L2ENobpvPabgp-45" vertex="1">
          <mxGeometry width="330" height="30" as="geometry" />
        </mxCell>
        <mxCell id="zWW35y1L2ENobpvPabgp-47" value="InstitutionID" style="shape=partialRectangle;html=1;whiteSpace=wrap;connectable=0;strokeColor=inherit;overflow=hidden;fillColor=none;top=0;left=0;bottom=0;right=0;pointerEvents=1;fontSize=13;" parent="zWW35y1L2ENobpvPabgp-46" vertex="1">
          <mxGeometry width="110" height="30" as="geometry">
            <mxRectangle width="110" height="30" as="alternateBounds" />
          </mxGeometry>
        </mxCell>
        <mxCell id="zWW35y1L2ENobpvPabgp-48" value="Name" style="shape=partialRectangle;html=1;whiteSpace=wrap;connectable=0;strokeColor=inherit;overflow=hidden;fillColor=none;top=0;left=0;bottom=0;right=0;pointerEvents=1;fontSize=13;" parent="zWW35y1L2ENobpvPabgp-46" vertex="1">
          <mxGeometry x="110" width="100" height="30" as="geometry">
            <mxRectangle width="100" height="30" as="alternateBounds" />
          </mxGeometry>
        </mxCell>
        <mxCell id="zWW35y1L2ENobpvPabgp-49" value="Address" style="shape=partialRectangle;html=1;whiteSpace=wrap;connectable=0;strokeColor=inherit;overflow=hidden;fillColor=none;top=0;left=0;bottom=0;right=0;pointerEvents=1;fontSize=13;" parent="zWW35y1L2ENobpvPabgp-46" vertex="1">
          <mxGeometry x="210" width="120" height="30" as="geometry">
            <mxRectangle width="120" height="30" as="alternateBounds" />
          </mxGeometry>
        </mxCell>
        <mxCell id="zWW35y1L2ENobpvPabgp-60" value="Jornal" style="text;html=1;align=center;verticalAlign=middle;resizable=0;points=[];autosize=1;strokeColor=none;fillColor=none;fontFamily=Helvetica;fontSize=16;fontColor=default;" parent="1" vertex="1">
          <mxGeometry x="40" y="-30" width="70" height="30" as="geometry" />
        </mxCell>
        <mxCell id="zWW35y1L2ENobpvPabgp-61" value="Topic" style="text;html=1;align=center;verticalAlign=middle;resizable=0;points=[];autosize=1;strokeColor=none;fillColor=none;fontFamily=Helvetica;fontSize=16;fontColor=default;" parent="1" vertex="1">
          <mxGeometry x="40" y="-150" width="60" height="30" as="geometry" />
        </mxCell>
        <mxCell id="zWW35y1L2ENobpvPabgp-62" value="" style="shape=table;startSize=0;container=1;collapsible=0;childLayout=tableLayout;fontSize=7;" parent="1" vertex="1">
          <mxGeometry x="40" y="-120" width="330" height="30.000000000000114" as="geometry" />
        </mxCell>
        <mxCell id="zWW35y1L2ENobpvPabgp-63" value="" style="shape=tableRow;horizontal=0;startSize=0;swimlaneHead=0;swimlaneBody=0;strokeColor=inherit;top=0;left=0;bottom=0;right=0;collapsible=0;dropTarget=0;fillColor=none;points=[[0,0.5],[1,0.5]];portConstraint=eastwest;fontSize=16;" parent="zWW35y1L2ENobpvPabgp-62" vertex="1">
          <mxGeometry width="330" height="30" as="geometry" />
        </mxCell>
        <mxCell id="zWW35y1L2ENobpvPabgp-64" value="TopicID" style="shape=partialRectangle;html=1;whiteSpace=wrap;connectable=0;strokeColor=inherit;overflow=hidden;fillColor=none;top=0;left=0;bottom=0;right=0;pointerEvents=1;fontSize=13;" parent="zWW35y1L2ENobpvPabgp-63" vertex="1">
          <mxGeometry width="110" height="30" as="geometry">
            <mxRectangle width="110" height="30" as="alternateBounds" />
          </mxGeometry>
        </mxCell>
        <mxCell id="zWW35y1L2ENobpvPabgp-65" value="Name" style="shape=partialRectangle;html=1;whiteSpace=wrap;connectable=0;strokeColor=inherit;overflow=hidden;fillColor=none;top=0;left=0;bottom=0;right=0;pointerEvents=1;fontSize=13;" parent="zWW35y1L2ENobpvPabgp-63" vertex="1">
          <mxGeometry x="110" width="110" height="30" as="geometry">
            <mxRectangle width="110" height="30" as="alternateBounds" />
          </mxGeometry>
        </mxCell>
        <mxCell id="zWW35y1L2ENobpvPabgp-66" value="Description" style="shape=partialRectangle;html=1;whiteSpace=wrap;connectable=0;strokeColor=inherit;overflow=hidden;fillColor=none;top=0;left=0;bottom=0;right=0;pointerEvents=1;fontSize=13;" parent="zWW35y1L2ENobpvPabgp-63" vertex="1">
          <mxGeometry x="220" width="110" height="30" as="geometry">
            <mxRectangle width="110" height="30" as="alternateBounds" />
          </mxGeometry>
        </mxCell>
        <mxCell id="zWW35y1L2ENobpvPabgp-70" value="Keyword" style="text;html=1;align=center;verticalAlign=middle;resizable=0;points=[];autosize=1;strokeColor=none;fillColor=none;fontFamily=Helvetica;fontSize=16;fontColor=default;" parent="1" vertex="1">
          <mxGeometry x="300" y="450" width="80" height="30" as="geometry" />
        </mxCell>
        <mxCell id="zWW35y1L2ENobpvPabgp-71" value="" style="shape=table;startSize=0;container=1;collapsible=0;childLayout=tableLayout;fontSize=7;" parent="1" vertex="1">
          <mxGeometry x="300" y="480" width="110" height="30" as="geometry" />
        </mxCell>
        <mxCell id="zWW35y1L2ENobpvPabgp-72" value="" style="shape=tableRow;horizontal=0;startSize=0;swimlaneHead=0;swimlaneBody=0;strokeColor=inherit;top=0;left=0;bottom=0;right=0;collapsible=0;dropTarget=0;fillColor=none;points=[[0,0.5],[1,0.5]];portConstraint=eastwest;fontSize=16;" parent="zWW35y1L2ENobpvPabgp-71" vertex="1">
          <mxGeometry width="110" height="30" as="geometry" />
        </mxCell>
        <mxCell id="zWW35y1L2ENobpvPabgp-73" value="KeywordName" style="shape=partialRectangle;html=1;whiteSpace=wrap;connectable=0;strokeColor=inherit;overflow=hidden;fillColor=none;top=0;left=0;bottom=0;right=0;pointerEvents=1;fontSize=13;" parent="zWW35y1L2ENobpvPabgp-72" vertex="1">
          <mxGeometry width="110" height="30" as="geometry">
            <mxRectangle width="110" height="30" as="alternateBounds" />
          </mxGeometry>
        </mxCell>
        <mxCell id="zWW35y1L2ENobpvPabgp-79" value="" style="shape=table;startSize=0;container=1;collapsible=0;childLayout=tableLayout;fontSize=7;" parent="1" vertex="1">
          <mxGeometry x="40" width="660" height="30.000000000000114" as="geometry" />
        </mxCell>
        <mxCell id="zWW35y1L2ENobpvPabgp-80" value="" style="shape=tableRow;horizontal=0;startSize=0;swimlaneHead=0;swimlaneBody=0;strokeColor=inherit;top=0;left=0;bottom=0;right=0;collapsible=0;dropTarget=0;fillColor=none;points=[[0,0.5],[1,0.5]];portConstraint=eastwest;fontSize=16;" parent="zWW35y1L2ENobpvPabgp-79" vertex="1">
          <mxGeometry width="660" height="30" as="geometry" />
        </mxCell>
        <mxCell id="zWW35y1L2ENobpvPabgp-81" value="JournalID" style="shape=partialRectangle;html=1;whiteSpace=wrap;connectable=0;strokeColor=inherit;overflow=hidden;fillColor=none;top=0;left=0;bottom=0;right=0;pointerEvents=1;fontSize=13;" parent="zWW35y1L2ENobpvPabgp-80" vertex="1">
          <mxGeometry width="110" height="30" as="geometry">
            <mxRectangle width="110" height="30" as="alternateBounds" />
          </mxGeometry>
        </mxCell>
        <mxCell id="zWW35y1L2ENobpvPabgp-82" value="Name" style="shape=partialRectangle;html=1;whiteSpace=wrap;connectable=0;strokeColor=inherit;overflow=hidden;fillColor=none;top=0;left=0;bottom=0;right=0;pointerEvents=1;fontSize=13;" parent="zWW35y1L2ENobpvPabgp-80" vertex="1">
          <mxGeometry x="110" width="110" height="30" as="geometry">
            <mxRectangle width="110" height="30" as="alternateBounds" />
          </mxGeometry>
        </mxCell>
        <mxCell id="zWW35y1L2ENobpvPabgp-83" value="PrintISSN" style="shape=partialRectangle;html=1;whiteSpace=wrap;connectable=0;strokeColor=inherit;overflow=hidden;fillColor=none;top=0;left=0;bottom=0;right=0;pointerEvents=1;fontSize=13;" parent="zWW35y1L2ENobpvPabgp-80" vertex="1">
          <mxGeometry x="220" width="110" height="30" as="geometry">
            <mxRectangle width="110" height="30" as="alternateBounds" />
          </mxGeometry>
        </mxCell>
        <mxCell id="zWW35y1L2ENobpvPabgp-84" value="EletronicISSN" style="shape=partialRectangle;html=1;whiteSpace=wrap;connectable=0;strokeColor=inherit;overflow=hidden;fillColor=none;top=0;left=0;bottom=0;right=0;pointerEvents=1;fontSize=13;" parent="zWW35y1L2ENobpvPabgp-80" vertex="1">
          <mxGeometry x="330" width="110" height="30" as="geometry">
            <mxRectangle width="110" height="30" as="alternateBounds" />
          </mxGeometry>
        </mxCell>
        <mxCell id="zWW35y1L2ENobpvPabgp-85" value="Frequency" style="shape=partialRectangle;html=1;whiteSpace=wrap;connectable=0;strokeColor=inherit;overflow=hidden;fillColor=none;top=0;left=0;bottom=0;right=0;pointerEvents=1;fontSize=13;" parent="zWW35y1L2ENobpvPabgp-80" vertex="1">
          <mxGeometry x="440" width="110" height="30" as="geometry">
            <mxRectangle width="110" height="30" as="alternateBounds" />
          </mxGeometry>
        </mxCell>
        <mxCell id="zWW35y1L2ENobpvPabgp-86" value="Publisher" style="shape=partialRectangle;html=1;whiteSpace=wrap;connectable=0;strokeColor=inherit;overflow=hidden;fillColor=none;top=0;left=0;bottom=0;right=0;pointerEvents=1;fontSize=13;" parent="zWW35y1L2ENobpvPabgp-80" vertex="1">
          <mxGeometry x="550" width="110" height="30" as="geometry">
            <mxRectangle width="110" height="30" as="alternateBounds" />
          </mxGeometry>
        </mxCell>
        <mxCell id="zWW35y1L2ENobpvPabgp-91" value="" style="shape=table;startSize=0;container=1;collapsible=0;childLayout=tableLayout;fontSize=7;" parent="1" vertex="1">
          <mxGeometry x="40" y="240" width="330" height="30" as="geometry" />
        </mxCell>
        <mxCell id="zWW35y1L2ENobpvPabgp-92" value="" style="shape=tableRow;horizontal=0;startSize=0;swimlaneHead=0;swimlaneBody=0;strokeColor=inherit;top=0;left=0;bottom=0;right=0;collapsible=0;dropTarget=0;fillColor=none;points=[[0,0.5],[1,0.5]];portConstraint=eastwest;fontSize=16;" parent="zWW35y1L2ENobpvPabgp-91" vertex="1">
          <mxGeometry width="330" height="30" as="geometry" />
        </mxCell>
        <mxCell id="zWW35y1L2ENobpvPabgp-93" value="JournalID" style="shape=partialRectangle;html=1;whiteSpace=wrap;connectable=0;strokeColor=inherit;overflow=hidden;fillColor=none;top=0;left=0;bottom=0;right=0;pointerEvents=1;fontSize=13;" parent="zWW35y1L2ENobpvPabgp-92" vertex="1">
          <mxGeometry width="110" height="30" as="geometry">
            <mxRectangle width="110" height="30" as="alternateBounds" />
          </mxGeometry>
        </mxCell>
        <mxCell id="zWW35y1L2ENobpvPabgp-94" value="Volume" style="shape=partialRectangle;html=1;whiteSpace=wrap;connectable=0;strokeColor=inherit;overflow=hidden;fillColor=none;top=0;left=0;bottom=0;right=0;pointerEvents=1;fontSize=13;" parent="zWW35y1L2ENobpvPabgp-92" vertex="1">
          <mxGeometry x="110" width="110" height="30" as="geometry">
            <mxRectangle width="110" height="30" as="alternateBounds" />
          </mxGeometry>
        </mxCell>
        <mxCell id="zWW35y1L2ENobpvPabgp-126" value="PublicationDate" style="shape=partialRectangle;html=1;whiteSpace=wrap;connectable=0;strokeColor=inherit;overflow=hidden;fillColor=none;top=0;left=0;bottom=0;right=0;pointerEvents=1;fontSize=13;" parent="zWW35y1L2ENobpvPabgp-92" vertex="1">
          <mxGeometry x="220" width="110" height="30" as="geometry">
            <mxRectangle width="110" height="30" as="alternateBounds" />
          </mxGeometry>
        </mxCell>
        <mxCell id="zWW35y1L2ENobpvPabgp-99" value="JournalVolume" style="text;html=1;align=center;verticalAlign=middle;resizable=0;points=[];autosize=1;strokeColor=none;fillColor=none;fontFamily=Helvetica;fontSize=16;fontColor=default;" parent="1" vertex="1">
          <mxGeometry x="40" y="210" width="130" height="30" as="geometry" />
        </mxCell>
        <mxCell id="zWW35y1L2ENobpvPabgp-109" value="" style="shape=table;startSize=0;container=1;collapsible=0;childLayout=tableLayout;fontSize=7;" parent="1" vertex="1">
          <mxGeometry x="40" y="1320" width="550" height="30" as="geometry" />
        </mxCell>
        <mxCell id="zWW35y1L2ENobpvPabgp-110" value="" style="shape=tableRow;horizontal=0;startSize=0;swimlaneHead=0;swimlaneBody=0;strokeColor=inherit;top=0;left=0;bottom=0;right=0;collapsible=0;dropTarget=0;fillColor=none;points=[[0,0.5],[1,0.5]];portConstraint=eastwest;fontSize=16;" parent="zWW35y1L2ENobpvPabgp-109" vertex="1">
          <mxGeometry width="550" height="30" as="geometry" />
        </mxCell>
        <mxCell id="zWW35y1L2ENobpvPabgp-129" value="&lt;div&gt;ArticleID&lt;/div&gt;" style="shape=partialRectangle;html=1;whiteSpace=wrap;connectable=0;strokeColor=inherit;overflow=hidden;fillColor=none;top=0;left=0;bottom=0;right=0;pointerEvents=1;fontSize=13;fontStyle=0" parent="zWW35y1L2ENobpvPabgp-110" vertex="1">
          <mxGeometry width="110" height="30" as="geometry">
            <mxRectangle width="110" height="30" as="alternateBounds" />
          </mxGeometry>
        </mxCell>
        <mxCell id="zWW35y1L2ENobpvPabgp-128" value="UserID" style="shape=partialRectangle;html=1;whiteSpace=wrap;connectable=0;strokeColor=inherit;overflow=hidden;fillColor=none;top=0;left=0;bottom=0;right=0;pointerEvents=1;fontSize=13;fontStyle=0" parent="zWW35y1L2ENobpvPabgp-110" vertex="1">
          <mxGeometry x="110" width="110" height="30" as="geometry">
            <mxRectangle width="110" height="30" as="alternateBounds" />
          </mxGeometry>
        </mxCell>
        <mxCell id="zWW35y1L2ENobpvPabgp-111" value="CommentID" style="shape=partialRectangle;html=1;whiteSpace=wrap;connectable=0;strokeColor=inherit;overflow=hidden;fillColor=none;top=0;left=0;bottom=0;right=0;pointerEvents=1;fontSize=13;fontStyle=0" parent="zWW35y1L2ENobpvPabgp-110" vertex="1">
          <mxGeometry x="220" width="110" height="30" as="geometry">
            <mxRectangle width="110" height="30" as="alternateBounds" />
          </mxGeometry>
        </mxCell>
        <mxCell id="zWW35y1L2ENobpvPabgp-114" value="Content" style="shape=partialRectangle;html=1;whiteSpace=wrap;connectable=0;strokeColor=inherit;overflow=hidden;fillColor=none;top=0;left=0;bottom=0;right=0;pointerEvents=1;fontSize=13;" parent="zWW35y1L2ENobpvPabgp-110" vertex="1">
          <mxGeometry x="330" width="110" height="30" as="geometry">
            <mxRectangle width="110" height="30" as="alternateBounds" />
          </mxGeometry>
        </mxCell>
        <mxCell id="zWW35y1L2ENobpvPabgp-112" value="Date" style="shape=partialRectangle;html=1;whiteSpace=wrap;connectable=0;strokeColor=inherit;overflow=hidden;fillColor=none;top=0;left=0;bottom=0;right=0;pointerEvents=1;fontSize=13;" parent="zWW35y1L2ENobpvPabgp-110" vertex="1">
          <mxGeometry x="440" width="110" height="30" as="geometry">
            <mxRectangle width="110" height="30" as="alternateBounds" />
          </mxGeometry>
        </mxCell>
        <mxCell id="zWW35y1L2ENobpvPabgp-115" value="Comment" style="text;html=1;align=center;verticalAlign=middle;resizable=0;points=[];autosize=1;strokeColor=none;fillColor=none;fontFamily=Helvetica;fontSize=16;fontColor=default;" parent="1" vertex="1">
          <mxGeometry x="40" y="1290" width="90" height="30" as="geometry" />
        </mxCell>
        <mxCell id="zWW35y1L2ENobpvPabgp-136" value="" style="endArrow=classic;html=1;rounded=0;fontFamily=Helvetica;fontSize=13;fontColor=default;exitX=0.12;exitY=1.004;exitDx=0;exitDy=0;exitPerimeter=0;entryX=0.076;entryY=1.004;entryDx=0;entryDy=0;entryPerimeter=0;" parent="1" source="zWW35y1L2ENobpvPabgp-92" target="zWW35y1L2ENobpvPabgp-80" edge="1">
          <mxGeometry width="50" height="50" relative="1" as="geometry">
            <mxPoint x="70" y="310" as="sourcePoint" />
            <mxPoint x="90" y="150" as="targetPoint" />
            <Array as="points">
              <mxPoint x="80" y="290" />
              <mxPoint x="-40" y="290" />
              <mxPoint x="-40" y="70" />
              <mxPoint x="90" y="70" />
            </Array>
          </mxGeometry>
        </mxCell>
        <mxCell id="zWW35y1L2ENobpvPabgp-139" value="" style="endArrow=classic;html=1;rounded=0;fontFamily=Helvetica;fontSize=13;fontColor=default;entryX=0.212;entryY=1.024;entryDx=0;entryDy=0;entryPerimeter=0;exitX=0.818;exitY=-0.01;exitDx=0;exitDy=0;exitPerimeter=0;" parent="1" source="zWW35y1L2ENobpvPabgp-3" target="zWW35y1L2ENobpvPabgp-92" edge="1">
          <mxGeometry width="50" height="50" relative="1" as="geometry">
            <mxPoint x="780" y="310" as="sourcePoint" />
            <mxPoint x="220" y="260" as="targetPoint" />
            <Array as="points">
              <mxPoint x="760" y="290" />
              <mxPoint x="110" y="290" />
            </Array>
          </mxGeometry>
        </mxCell>
        <mxCell id="zWW35y1L2ENobpvPabgp-140" value="" style="endArrow=classic;html=1;rounded=0;fontFamily=Helvetica;fontSize=13;fontColor=default;entryX=0.515;entryY=1.007;entryDx=0;entryDy=0;entryPerimeter=0;exitX=0.943;exitY=-0.009;exitDx=0;exitDy=0;exitPerimeter=0;" parent="1" source="zWW35y1L2ENobpvPabgp-3" target="zWW35y1L2ENobpvPabgp-92" edge="1">
          <mxGeometry width="50" height="50" relative="1" as="geometry">
            <mxPoint x="900" y="330" as="sourcePoint" />
            <mxPoint x="210" y="291" as="targetPoint" />
            <Array as="points">
              <mxPoint x="870" y="310" />
              <mxPoint x="210" y="310" />
            </Array>
          </mxGeometry>
        </mxCell>
        <mxCell id="zWW35y1L2ENobpvPabgp-143" value="" style="endArrow=classic;html=1;rounded=0;fontFamily=Helvetica;fontSize=13;fontColor=default;exitX=0.907;exitY=0.001;exitDx=0;exitDy=0;exitPerimeter=0;" parent="1" source="zWW35y1L2ENobpvPabgp-37" edge="1">
          <mxGeometry width="50" height="50" relative="1" as="geometry">
            <mxPoint x="538.3000000000002" y="719.0099999999998" as="sourcePoint" />
            <mxPoint x="100" y="630" as="targetPoint" />
            <Array as="points">
              <mxPoint x="539" y="800" />
              <mxPoint x="640" y="800" />
              <mxPoint x="640" y="670" />
              <mxPoint x="540" y="670" />
              <mxPoint x="100" y="670" />
            </Array>
          </mxGeometry>
        </mxCell>
        <mxCell id="zWW35y1L2ENobpvPabgp-146" value="" style="endArrow=none;html=1;rounded=0;fontFamily=Helvetica;fontSize=13;fontColor=default;" parent="1" edge="1">
          <mxGeometry width="50" height="50" relative="1" as="geometry">
            <mxPoint x="540" y="720" as="sourcePoint" />
            <mxPoint x="540" y="670" as="targetPoint" />
          </mxGeometry>
        </mxCell>
        <mxCell id="zWW35y1L2ENobpvPabgp-149" value="" style="endArrow=classic;html=1;rounded=0;fontFamily=Helvetica;fontSize=13;fontColor=default;exitX=0.291;exitY=1.008;exitDx=0;exitDy=0;exitPerimeter=0;" parent="1" source="zWW35y1L2ENobpvPabgp-110" edge="1">
          <mxGeometry width="50" height="50" relative="1" as="geometry">
            <mxPoint x="200" y="990" as="sourcePoint" />
            <mxPoint x="100" y="750" as="targetPoint" />
            <Array as="points">
              <mxPoint x="200" y="1390" />
              <mxPoint x="20" y="1390" />
              <mxPoint x="20" y="790" />
              <mxPoint x="100" y="790" />
            </Array>
          </mxGeometry>
        </mxCell>
        <mxCell id="zWW35y1L2ENobpvPabgp-150" value="" style="endArrow=classic;html=1;rounded=0;fontFamily=Helvetica;fontSize=13;fontColor=default;exitX=0.091;exitY=1.02;exitDx=0;exitDy=0;exitPerimeter=0;entryX=0.068;entryY=0.998;entryDx=0;entryDy=0;entryPerimeter=0;" parent="1" source="zWW35y1L2ENobpvPabgp-109" target="zWW35y1L2ENobpvPabgp-3" edge="1">
          <mxGeometry width="50" height="50" relative="1" as="geometry">
            <mxPoint x="50" y="560" as="sourcePoint" />
            <mxPoint x="100" y="510" as="targetPoint" />
            <Array as="points">
              <mxPoint x="90" y="1370" />
              <mxPoint y="1370" />
              <mxPoint y="550" />
              <mxPoint y="430" />
              <mxPoint x="100" y="430" />
            </Array>
          </mxGeometry>
        </mxCell>
        <mxCell id="zWW35y1L2ENobpvPabgp-153" value="Belongs_to" style="text;html=1;align=center;verticalAlign=middle;resizable=0;points=[];autosize=1;strokeColor=none;fillColor=none;fontFamily=Helvetica;fontSize=16;fontColor=default;" parent="1" vertex="1">
          <mxGeometry x="40" y="90" width="100" height="30" as="geometry" />
        </mxCell>
        <mxCell id="zWW35y1L2ENobpvPabgp-154" value="" style="shape=table;startSize=0;container=1;collapsible=0;childLayout=tableLayout;fontSize=7;" parent="1" vertex="1">
          <mxGeometry x="40" y="120" width="220" height="30.000000000000114" as="geometry" />
        </mxCell>
        <mxCell id="zWW35y1L2ENobpvPabgp-155" value="" style="shape=tableRow;horizontal=0;startSize=0;swimlaneHead=0;swimlaneBody=0;strokeColor=inherit;top=0;left=0;bottom=0;right=0;collapsible=0;dropTarget=0;fillColor=none;points=[[0,0.5],[1,0.5]];portConstraint=eastwest;fontSize=16;" parent="zWW35y1L2ENobpvPabgp-154" vertex="1">
          <mxGeometry width="220" height="30" as="geometry" />
        </mxCell>
        <mxCell id="zWW35y1L2ENobpvPabgp-156" value="TopicID" style="shape=partialRectangle;html=1;whiteSpace=wrap;connectable=0;strokeColor=inherit;overflow=hidden;fillColor=none;top=0;left=0;bottom=0;right=0;pointerEvents=1;fontSize=13;" parent="zWW35y1L2ENobpvPabgp-155" vertex="1">
          <mxGeometry width="110" height="30" as="geometry">
            <mxRectangle width="110" height="30" as="alternateBounds" />
          </mxGeometry>
        </mxCell>
        <mxCell id="zWW35y1L2ENobpvPabgp-157" value="JournalID" style="shape=partialRectangle;html=1;whiteSpace=wrap;connectable=0;strokeColor=inherit;overflow=hidden;fillColor=none;top=0;left=0;bottom=0;right=0;pointerEvents=1;fontSize=13;" parent="zWW35y1L2ENobpvPabgp-155" vertex="1">
          <mxGeometry x="110" width="110" height="30" as="geometry">
            <mxRectangle width="110" height="30" as="alternateBounds" />
          </mxGeometry>
        </mxCell>
        <mxCell id="zWW35y1L2ENobpvPabgp-160" value="" style="endArrow=none;html=1;rounded=0;fontFamily=Helvetica;fontSize=13;fontColor=default;entryX=0.773;entryY=1.001;entryDx=0;entryDy=0;entryPerimeter=0;" parent="1" target="zWW35y1L2ENobpvPabgp-155" edge="1">
          <mxGeometry width="50" height="50" relative="1" as="geometry">
            <mxPoint x="-40" y="190" as="sourcePoint" />
            <mxPoint x="230" y="190" as="targetPoint" />
            <Array as="points">
              <mxPoint x="110" y="190.09" />
              <mxPoint x="210" y="190" />
              <mxPoint x="210" y="160" />
            </Array>
          </mxGeometry>
        </mxCell>
        <mxCell id="zWW35y1L2ENobpvPabgp-161" value="" style="endArrow=classic;html=1;rounded=0;fontFamily=Helvetica;fontSize=13;fontColor=default;exitX=0.12;exitY=1.004;exitDx=0;exitDy=0;exitPerimeter=0;entryX=0.076;entryY=1.004;entryDx=0;entryDy=0;entryPerimeter=0;" parent="1" edge="1">
          <mxGeometry width="50" height="50" relative="1" as="geometry">
            <mxPoint x="90" y="150" as="sourcePoint" />
            <mxPoint x="100" y="-90" as="targetPoint" />
            <Array as="points">
              <mxPoint x="90" y="170" />
              <mxPoint x="-20" y="170" />
              <mxPoint x="-20" y="-50" />
              <mxPoint x="100" y="-50" />
            </Array>
          </mxGeometry>
        </mxCell>
        <mxCell id="zWW35y1L2ENobpvPabgp-170" value="Favorite_Article" style="text;html=1;align=center;verticalAlign=middle;resizable=0;points=[];autosize=1;strokeColor=none;fillColor=none;fontFamily=Helvetica;fontSize=16;fontColor=default;" parent="1" vertex="1">
          <mxGeometry x="40" y="930" width="130" height="30" as="geometry" />
        </mxCell>
        <mxCell id="zWW35y1L2ENobpvPabgp-171" value="" style="shape=table;startSize=0;container=1;collapsible=0;childLayout=tableLayout;fontSize=7;" parent="1" vertex="1">
          <mxGeometry x="40" y="960" width="220" height="30.000000000000114" as="geometry" />
        </mxCell>
        <mxCell id="zWW35y1L2ENobpvPabgp-172" value="" style="shape=tableRow;horizontal=0;startSize=0;swimlaneHead=0;swimlaneBody=0;strokeColor=inherit;top=0;left=0;bottom=0;right=0;collapsible=0;dropTarget=0;fillColor=none;points=[[0,0.5],[1,0.5]];portConstraint=eastwest;fontSize=16;" parent="zWW35y1L2ENobpvPabgp-171" vertex="1">
          <mxGeometry width="220" height="30" as="geometry" />
        </mxCell>
        <mxCell id="zWW35y1L2ENobpvPabgp-173" value="ArticleID" style="shape=partialRectangle;html=1;whiteSpace=wrap;connectable=0;strokeColor=inherit;overflow=hidden;fillColor=none;top=0;left=0;bottom=0;right=0;pointerEvents=1;fontSize=13;" parent="zWW35y1L2ENobpvPabgp-172" vertex="1">
          <mxGeometry width="110" height="30" as="geometry">
            <mxRectangle width="110" height="30" as="alternateBounds" />
          </mxGeometry>
        </mxCell>
        <mxCell id="zWW35y1L2ENobpvPabgp-174" value="UserID" style="shape=partialRectangle;html=1;whiteSpace=wrap;connectable=0;strokeColor=inherit;overflow=hidden;fillColor=none;top=0;left=0;bottom=0;right=0;pointerEvents=1;fontSize=13;" parent="zWW35y1L2ENobpvPabgp-172" vertex="1">
          <mxGeometry x="110" width="110" height="30" as="geometry">
            <mxRectangle width="110" height="30" as="alternateBounds" />
          </mxGeometry>
        </mxCell>
        <mxCell id="zWW35y1L2ENobpvPabgp-175" value="Read_by" style="text;html=1;align=center;verticalAlign=middle;resizable=0;points=[];autosize=1;strokeColor=none;fillColor=none;fontFamily=Helvetica;fontSize=16;fontColor=default;" parent="1" vertex="1">
          <mxGeometry x="300" y="930" width="90" height="30" as="geometry" />
        </mxCell>
        <mxCell id="zWW35y1L2ENobpvPabgp-176" value="" style="shape=table;startSize=0;container=1;collapsible=0;childLayout=tableLayout;fontSize=7;" parent="1" vertex="1">
          <mxGeometry x="300" y="960" width="220" height="30.000000000000114" as="geometry" />
        </mxCell>
        <mxCell id="zWW35y1L2ENobpvPabgp-177" value="" style="shape=tableRow;horizontal=0;startSize=0;swimlaneHead=0;swimlaneBody=0;strokeColor=inherit;top=0;left=0;bottom=0;right=0;collapsible=0;dropTarget=0;fillColor=none;points=[[0,0.5],[1,0.5]];portConstraint=eastwest;fontSize=16;" parent="zWW35y1L2ENobpvPabgp-176" vertex="1">
          <mxGeometry width="220" height="30" as="geometry" />
        </mxCell>
        <mxCell id="zWW35y1L2ENobpvPabgp-178" value="ArticleID" style="shape=partialRectangle;html=1;whiteSpace=wrap;connectable=0;strokeColor=inherit;overflow=hidden;fillColor=none;top=0;left=0;bottom=0;right=0;pointerEvents=1;fontSize=13;" parent="zWW35y1L2ENobpvPabgp-177" vertex="1">
          <mxGeometry width="110" height="30" as="geometry">
            <mxRectangle width="110" height="30" as="alternateBounds" />
          </mxGeometry>
        </mxCell>
        <mxCell id="zWW35y1L2ENobpvPabgp-179" value="UserID" style="shape=partialRectangle;html=1;whiteSpace=wrap;connectable=0;strokeColor=inherit;overflow=hidden;fillColor=none;top=0;left=0;bottom=0;right=0;pointerEvents=1;fontSize=13;" parent="zWW35y1L2ENobpvPabgp-177" vertex="1">
          <mxGeometry x="110" width="110" height="30" as="geometry">
            <mxRectangle width="110" height="30" as="alternateBounds" />
          </mxGeometry>
        </mxCell>
        <mxCell id="zWW35y1L2ENobpvPabgp-180" value="" style="endArrow=none;html=1;rounded=0;fontFamily=Helvetica;fontSize=13;fontColor=default;entryX=0.726;entryY=0.997;entryDx=0;entryDy=0;entryPerimeter=0;" parent="1" target="zWW35y1L2ENobpvPabgp-172" edge="1">
          <mxGeometry width="50" height="50" relative="1" as="geometry">
            <mxPoint x="20" y="1030" as="sourcePoint" />
            <mxPoint x="200" y="1030" as="targetPoint" />
            <Array as="points">
              <mxPoint x="200" y="1030" />
            </Array>
          </mxGeometry>
        </mxCell>
        <mxCell id="zWW35y1L2ENobpvPabgp-181" value="" style="endArrow=none;html=1;rounded=0;fontFamily=Helvetica;fontSize=13;fontColor=default;entryX=0.226;entryY=0.999;entryDx=0;entryDy=0;entryPerimeter=0;" parent="1" target="zWW35y1L2ENobpvPabgp-172" edge="1">
          <mxGeometry width="50" height="50" relative="1" as="geometry">
            <mxPoint y="1010" as="sourcePoint" />
            <mxPoint x="50" y="960" as="targetPoint" />
            <Array as="points">
              <mxPoint x="90" y="1010" />
            </Array>
          </mxGeometry>
        </mxCell>
        <mxCell id="zWW35y1L2ENobpvPabgp-183" value="" style="endArrow=none;html=1;rounded=0;fontFamily=Helvetica;fontSize=13;fontColor=default;entryX=0.274;entryY=0.996;entryDx=0;entryDy=0;entryPerimeter=0;" parent="1" target="zWW35y1L2ENobpvPabgp-177" edge="1">
          <mxGeometry width="50" height="50" relative="1" as="geometry">
            <mxPoint x="90" y="1010" as="sourcePoint" />
            <mxPoint x="360" y="1010" as="targetPoint" />
            <Array as="points">
              <mxPoint x="180" y="1010" />
              <mxPoint x="360" y="1010" />
            </Array>
          </mxGeometry>
        </mxCell>
        <mxCell id="zWW35y1L2ENobpvPabgp-184" value="Favorite_Journal" style="text;html=1;align=center;verticalAlign=middle;resizable=0;points=[];autosize=1;strokeColor=none;fillColor=none;fontFamily=Helvetica;fontSize=16;fontColor=default;" parent="1" vertex="1">
          <mxGeometry x="40" y="810" width="140" height="30" as="geometry" />
        </mxCell>
        <mxCell id="zWW35y1L2ENobpvPabgp-185" value="" style="shape=table;startSize=0;container=1;collapsible=0;childLayout=tableLayout;fontSize=7;" parent="1" vertex="1">
          <mxGeometry x="40" y="840" width="220" height="30.000000000000114" as="geometry" />
        </mxCell>
        <mxCell id="zWW35y1L2ENobpvPabgp-186" value="" style="shape=tableRow;horizontal=0;startSize=0;swimlaneHead=0;swimlaneBody=0;strokeColor=inherit;top=0;left=0;bottom=0;right=0;collapsible=0;dropTarget=0;fillColor=none;points=[[0,0.5],[1,0.5]];portConstraint=eastwest;fontSize=16;" parent="zWW35y1L2ENobpvPabgp-185" vertex="1">
          <mxGeometry width="220" height="30" as="geometry" />
        </mxCell>
        <mxCell id="zWW35y1L2ENobpvPabgp-187" value="JournalID" style="shape=partialRectangle;html=1;whiteSpace=wrap;connectable=0;strokeColor=inherit;overflow=hidden;fillColor=none;top=0;left=0;bottom=0;right=0;pointerEvents=1;fontSize=13;" parent="zWW35y1L2ENobpvPabgp-186" vertex="1">
          <mxGeometry width="110" height="30" as="geometry">
            <mxRectangle width="110" height="30" as="alternateBounds" />
          </mxGeometry>
        </mxCell>
        <mxCell id="zWW35y1L2ENobpvPabgp-188" value="UserID" style="shape=partialRectangle;html=1;whiteSpace=wrap;connectable=0;strokeColor=inherit;overflow=hidden;fillColor=none;top=0;left=0;bottom=0;right=0;pointerEvents=1;fontSize=13;" parent="zWW35y1L2ENobpvPabgp-186" vertex="1">
          <mxGeometry x="110" width="110" height="30" as="geometry">
            <mxRectangle width="110" height="30" as="alternateBounds" />
          </mxGeometry>
        </mxCell>
        <mxCell id="zWW35y1L2ENobpvPabgp-189" value="" style="endArrow=none;html=1;rounded=0;fontFamily=Helvetica;fontSize=13;fontColor=default;entryX=0.726;entryY=0.997;entryDx=0;entryDy=0;entryPerimeter=0;" parent="1" edge="1">
          <mxGeometry width="50" height="50" relative="1" as="geometry">
            <mxPoint x="20" y="910" as="sourcePoint" />
            <mxPoint x="200" y="870" as="targetPoint" />
            <Array as="points">
              <mxPoint x="200" y="910" />
            </Array>
          </mxGeometry>
        </mxCell>
        <mxCell id="zWW35y1L2ENobpvPabgp-190" value="" style="endArrow=none;html=1;rounded=0;fontFamily=Helvetica;fontSize=13;fontColor=default;exitX=0.227;exitY=1.005;exitDx=0;exitDy=0;exitPerimeter=0;" parent="1" source="zWW35y1L2ENobpvPabgp-186" edge="1">
          <mxGeometry width="50" height="50" relative="1" as="geometry">
            <mxPoint x="230" y="460" as="sourcePoint" />
            <mxPoint x="-40" y="290" as="targetPoint" />
            <Array as="points">
              <mxPoint x="90" y="890" />
              <mxPoint x="-40" y="890" />
            </Array>
          </mxGeometry>
        </mxCell>
        <mxCell id="zWW35y1L2ENobpvPabgp-192" value="" style="endArrow=none;html=1;rounded=0;fontFamily=Helvetica;fontSize=13;fontColor=default;entryX=0.772;entryY=0.996;entryDx=0;entryDy=0;entryPerimeter=0;" parent="1" target="zWW35y1L2ENobpvPabgp-177" edge="1">
          <mxGeometry width="50" height="50" relative="1" as="geometry">
            <mxPoint x="200" y="1030" as="sourcePoint" />
            <mxPoint x="380" y="990" as="targetPoint" />
            <Array as="points">
              <mxPoint x="470" y="1030" />
            </Array>
          </mxGeometry>
        </mxCell>
        <mxCell id="zWW35y1L2ENobpvPabgp-193" value="Interested_in" style="text;html=1;align=center;verticalAlign=middle;resizable=0;points=[];autosize=1;strokeColor=none;fillColor=none;fontFamily=Helvetica;fontSize=16;fontColor=default;" parent="1" vertex="1">
          <mxGeometry x="300" y="810" width="120" height="30" as="geometry" />
        </mxCell>
        <mxCell id="zWW35y1L2ENobpvPabgp-194" value="" style="shape=table;startSize=0;container=1;collapsible=0;childLayout=tableLayout;fontSize=7;" parent="1" vertex="1">
          <mxGeometry x="300" y="840" width="220" height="30.000000000000114" as="geometry" />
        </mxCell>
        <mxCell id="zWW35y1L2ENobpvPabgp-195" value="" style="shape=tableRow;horizontal=0;startSize=0;swimlaneHead=0;swimlaneBody=0;strokeColor=inherit;top=0;left=0;bottom=0;right=0;collapsible=0;dropTarget=0;fillColor=none;points=[[0,0.5],[1,0.5]];portConstraint=eastwest;fontSize=16;" parent="zWW35y1L2ENobpvPabgp-194" vertex="1">
          <mxGeometry width="220" height="30" as="geometry" />
        </mxCell>
        <mxCell id="zWW35y1L2ENobpvPabgp-196" value="TopicID" style="shape=partialRectangle;html=1;whiteSpace=wrap;connectable=0;strokeColor=inherit;overflow=hidden;fillColor=none;top=0;left=0;bottom=0;right=0;pointerEvents=1;fontSize=13;" parent="zWW35y1L2ENobpvPabgp-195" vertex="1">
          <mxGeometry width="110" height="30" as="geometry">
            <mxRectangle width="110" height="30" as="alternateBounds" />
          </mxGeometry>
        </mxCell>
        <mxCell id="zWW35y1L2ENobpvPabgp-197" value="UserID" style="shape=partialRectangle;html=1;whiteSpace=wrap;connectable=0;strokeColor=inherit;overflow=hidden;fillColor=none;top=0;left=0;bottom=0;right=0;pointerEvents=1;fontSize=13;" parent="zWW35y1L2ENobpvPabgp-195" vertex="1">
          <mxGeometry x="110" width="110" height="30" as="geometry">
            <mxRectangle width="110" height="30" as="alternateBounds" />
          </mxGeometry>
        </mxCell>
        <mxCell id="zWW35y1L2ENobpvPabgp-198" value="" style="endArrow=none;html=1;rounded=0;fontFamily=Helvetica;fontSize=13;fontColor=default;exitX=0.273;exitY=1.008;exitDx=0;exitDy=0;exitPerimeter=0;" parent="1" source="zWW35y1L2ENobpvPabgp-195" edge="1">
          <mxGeometry width="50" height="50" relative="1" as="geometry">
            <mxPoint x="370" y="930" as="sourcePoint" />
            <mxPoint x="-20" y="170" as="targetPoint" />
            <Array as="points">
              <mxPoint x="360" y="930" />
              <mxPoint x="-20" y="930" />
            </Array>
          </mxGeometry>
        </mxCell>
        <mxCell id="zWW35y1L2ENobpvPabgp-199" value="Wrote_by" style="text;html=1;align=center;verticalAlign=middle;resizable=0;points=[];autosize=1;strokeColor=none;fillColor=none;fontFamily=Helvetica;fontSize=16;fontColor=default;" parent="1" vertex="1">
          <mxGeometry x="40" y="1170" width="90" height="30" as="geometry" />
        </mxCell>
        <mxCell id="zWW35y1L2ENobpvPabgp-200" value="" style="shape=table;startSize=0;container=1;collapsible=0;childLayout=tableLayout;fontSize=7;" parent="1" vertex="1">
          <mxGeometry x="40" y="1200" width="220" height="30.000000000000114" as="geometry" />
        </mxCell>
        <mxCell id="zWW35y1L2ENobpvPabgp-201" value="" style="shape=tableRow;horizontal=0;startSize=0;swimlaneHead=0;swimlaneBody=0;strokeColor=inherit;top=0;left=0;bottom=0;right=0;collapsible=0;dropTarget=0;fillColor=none;points=[[0,0.5],[1,0.5]];portConstraint=eastwest;fontSize=16;" parent="zWW35y1L2ENobpvPabgp-200" vertex="1">
          <mxGeometry width="220" height="30" as="geometry" />
        </mxCell>
        <mxCell id="zWW35y1L2ENobpvPabgp-202" value="ArticleID" style="shape=partialRectangle;html=1;whiteSpace=wrap;connectable=0;strokeColor=inherit;overflow=hidden;fillColor=none;top=0;left=0;bottom=0;right=0;pointerEvents=1;fontSize=13;" parent="zWW35y1L2ENobpvPabgp-201" vertex="1">
          <mxGeometry width="110" height="30" as="geometry">
            <mxRectangle width="110" height="30" as="alternateBounds" />
          </mxGeometry>
        </mxCell>
        <mxCell id="zWW35y1L2ENobpvPabgp-203" value="AuthorID" style="shape=partialRectangle;html=1;whiteSpace=wrap;connectable=0;strokeColor=inherit;overflow=hidden;fillColor=none;top=0;left=0;bottom=0;right=0;pointerEvents=1;fontSize=13;" parent="zWW35y1L2ENobpvPabgp-201" vertex="1">
          <mxGeometry x="110" width="110" height="30" as="geometry">
            <mxRectangle width="110" height="30" as="alternateBounds" />
          </mxGeometry>
        </mxCell>
        <mxCell id="zWW35y1L2ENobpvPabgp-204" value="" style="endArrow=classic;html=1;rounded=0;fontFamily=Helvetica;fontSize=13;fontColor=default;exitX=0.726;exitY=0;exitDx=0;exitDy=0;exitPerimeter=0;entryX=0.09;entryY=1.01;entryDx=0;entryDy=0;entryPerimeter=0;" parent="1" source="zWW35y1L2ENobpvPabgp-201" target="zWW35y1L2ENobpvPabgp-37" edge="1">
          <mxGeometry width="50" height="50" relative="1" as="geometry">
            <mxPoint x="45" y="1160" as="sourcePoint" />
            <mxPoint x="95" y="1110" as="targetPoint" />
            <Array as="points">
              <mxPoint x="200" y="1150" />
              <mxPoint x="90" y="1150" />
            </Array>
          </mxGeometry>
        </mxCell>
        <mxCell id="zWW35y1L2ENobpvPabgp-205" value="" style="endArrow=none;html=1;rounded=0;fontFamily=Helvetica;fontSize=13;fontColor=default;entryX=0.226;entryY=0.999;entryDx=0;entryDy=0;entryPerimeter=0;" parent="1" edge="1">
          <mxGeometry width="50" height="50" relative="1" as="geometry">
            <mxPoint y="1250" as="sourcePoint" />
            <mxPoint x="90" y="1230" as="targetPoint" />
            <Array as="points">
              <mxPoint x="90" y="1250" />
            </Array>
          </mxGeometry>
        </mxCell>
        <mxCell id="zWW35y1L2ENobpvPabgp-206" value="Cited_by" style="text;html=1;align=center;verticalAlign=middle;resizable=0;points=[];autosize=1;strokeColor=none;fillColor=none;fontFamily=Helvetica;fontSize=16;fontColor=default;" parent="1" vertex="1">
          <mxGeometry x="40" y="450" width="90" height="30" as="geometry" />
        </mxCell>
        <mxCell id="zWW35y1L2ENobpvPabgp-207" value="" style="shape=table;startSize=0;container=1;collapsible=0;childLayout=tableLayout;fontSize=7;" parent="1" vertex="1">
          <mxGeometry x="40" y="480" width="210" height="30" as="geometry" />
        </mxCell>
        <mxCell id="zWW35y1L2ENobpvPabgp-208" value="" style="shape=tableRow;horizontal=0;startSize=0;swimlaneHead=0;swimlaneBody=0;strokeColor=inherit;top=0;left=0;bottom=0;right=0;collapsible=0;dropTarget=0;fillColor=none;points=[[0,0.5],[1,0.5]];portConstraint=eastwest;fontSize=16;" parent="zWW35y1L2ENobpvPabgp-207" vertex="1">
          <mxGeometry width="210" height="30" as="geometry" />
        </mxCell>
        <mxCell id="zWW35y1L2ENobpvPabgp-209" value="CitedArticleID" style="shape=partialRectangle;html=1;whiteSpace=wrap;connectable=0;strokeColor=inherit;overflow=hidden;fillColor=none;top=0;left=0;bottom=0;right=0;pointerEvents=1;fontSize=13;" parent="zWW35y1L2ENobpvPabgp-208" vertex="1">
          <mxGeometry width="110" height="30" as="geometry">
            <mxRectangle width="110" height="30" as="alternateBounds" />
          </mxGeometry>
        </mxCell>
        <mxCell id="zWW35y1L2ENobpvPabgp-210" value="CitingArticleID" style="shape=partialRectangle;html=1;whiteSpace=wrap;connectable=0;strokeColor=inherit;overflow=hidden;fillColor=none;top=0;left=0;bottom=0;right=0;pointerEvents=1;fontSize=13;" parent="zWW35y1L2ENobpvPabgp-208" vertex="1">
          <mxGeometry x="110" width="100" height="30" as="geometry">
            <mxRectangle width="100" height="30" as="alternateBounds" />
          </mxGeometry>
        </mxCell>
        <mxCell id="zWW35y1L2ENobpvPabgp-212" value="" style="endArrow=none;html=1;rounded=0;fontFamily=Helvetica;fontSize=13;fontColor=default;entryX=0.726;entryY=0.997;entryDx=0;entryDy=0;entryPerimeter=0;" parent="1" edge="1">
          <mxGeometry width="50" height="50" relative="1" as="geometry">
            <mxPoint y="550" as="sourcePoint" />
            <mxPoint x="200" y="510" as="targetPoint" />
            <Array as="points">
              <mxPoint x="200" y="550" />
            </Array>
          </mxGeometry>
        </mxCell>
        <mxCell id="zWW35y1L2ENobpvPabgp-213" value="" style="endArrow=none;html=1;rounded=0;fontFamily=Helvetica;fontSize=13;fontColor=default;entryX=0.226;entryY=0.999;entryDx=0;entryDy=0;entryPerimeter=0;" parent="1" edge="1">
          <mxGeometry width="50" height="50" relative="1" as="geometry">
            <mxPoint y="530" as="sourcePoint" />
            <mxPoint x="90" y="510" as="targetPoint" />
            <Array as="points">
              <mxPoint x="90" y="530" />
            </Array>
          </mxGeometry>
        </mxCell>
        <mxCell id="zWW35y1L2ENobpvPabgp-219" value="Has_Keywords" style="text;html=1;align=center;verticalAlign=middle;resizable=0;points=[];autosize=1;strokeColor=none;fillColor=none;fontFamily=Helvetica;fontSize=16;fontColor=default;" parent="1" vertex="1">
          <mxGeometry x="460" y="450" width="130" height="30" as="geometry" />
        </mxCell>
        <mxCell id="zWW35y1L2ENobpvPabgp-220" value="" style="shape=table;startSize=0;container=1;collapsible=0;childLayout=tableLayout;fontSize=7;" parent="1" vertex="1">
          <mxGeometry x="460" y="480" width="210" height="30" as="geometry" />
        </mxCell>
        <mxCell id="zWW35y1L2ENobpvPabgp-221" value="" style="shape=tableRow;horizontal=0;startSize=0;swimlaneHead=0;swimlaneBody=0;strokeColor=inherit;top=0;left=0;bottom=0;right=0;collapsible=0;dropTarget=0;fillColor=none;points=[[0,0.5],[1,0.5]];portConstraint=eastwest;fontSize=16;" parent="zWW35y1L2ENobpvPabgp-220" vertex="1">
          <mxGeometry width="210" height="30" as="geometry" />
        </mxCell>
        <mxCell id="zWW35y1L2ENobpvPabgp-222" value="ArticleID" style="shape=partialRectangle;html=1;whiteSpace=wrap;connectable=0;strokeColor=inherit;overflow=hidden;fillColor=none;top=0;left=0;bottom=0;right=0;pointerEvents=1;fontSize=13;" parent="zWW35y1L2ENobpvPabgp-221" vertex="1">
          <mxGeometry width="110" height="30" as="geometry">
            <mxRectangle width="110" height="30" as="alternateBounds" />
          </mxGeometry>
        </mxCell>
        <mxCell id="zWW35y1L2ENobpvPabgp-223" value="KeywordName" style="shape=partialRectangle;html=1;whiteSpace=wrap;connectable=0;strokeColor=inherit;overflow=hidden;fillColor=none;top=0;left=0;bottom=0;right=0;pointerEvents=1;fontSize=13;" parent="zWW35y1L2ENobpvPabgp-221" vertex="1">
          <mxGeometry x="110" width="100" height="30" as="geometry">
            <mxRectangle width="100" height="30" as="alternateBounds" />
          </mxGeometry>
        </mxCell>
        <mxCell id="zWW35y1L2ENobpvPabgp-224" value="" style="endArrow=none;html=1;rounded=0;fontFamily=Helvetica;fontSize=13;fontColor=default;entryX=0.237;entryY=1.005;entryDx=0;entryDy=0;entryPerimeter=0;" parent="1" target="zWW35y1L2ENobpvPabgp-221" edge="1">
          <mxGeometry width="50" height="50" relative="1" as="geometry">
            <mxPoint x="200" y="550" as="sourcePoint" />
            <mxPoint x="250" y="500" as="targetPoint" />
            <Array as="points">
              <mxPoint x="510" y="550" />
            </Array>
          </mxGeometry>
        </mxCell>
        <mxCell id="zWW35y1L2ENobpvPabgp-226" value="" style="endArrow=classic;html=1;rounded=0;fontFamily=Helvetica;fontSize=13;fontColor=default;exitX=0.762;exitY=0.989;exitDx=0;exitDy=0;exitPerimeter=0;" parent="1" source="zWW35y1L2ENobpvPabgp-221" edge="1">
          <mxGeometry width="50" height="50" relative="1" as="geometry">
            <mxPoint x="630" y="530" as="sourcePoint" />
            <mxPoint x="360" y="510" as="targetPoint" />
            <Array as="points">
              <mxPoint x="620" y="530" />
              <mxPoint x="360" y="530" />
            </Array>
          </mxGeometry>
        </mxCell>
        <mxCell id="zWW35y1L2ENobpvPabgp-227" value="" style="endArrow=none;html=1;rounded=0;fontFamily=Helvetica;fontSize=13;fontColor=default;entryX=0.771;entryY=1.006;entryDx=0;entryDy=0;entryPerimeter=0;" parent="1" target="zWW35y1L2ENobpvPabgp-195" edge="1">
          <mxGeometry width="50" height="50" relative="1" as="geometry">
            <mxPoint x="200" y="910" as="sourcePoint" />
            <mxPoint x="250" y="860" as="targetPoint" />
            <Array as="points">
              <mxPoint x="470" y="910" />
            </Array>
          </mxGeometry>
        </mxCell>
        <mxCell id="zWW35y1L2ENobpvPabgp-230" value="" style="endArrow=none;html=1;rounded=0;strokeColor=default;align=center;verticalAlign=middle;fontFamily=Helvetica;fontSize=11;fontColor=default;labelBackgroundColor=default;edgeStyle=orthogonalEdgeStyle;" parent="1" edge="1">
          <mxGeometry width="50" height="50" relative="1" as="geometry">
            <mxPoint x="73.02999999999977" y="-98.99999999999989" as="sourcePoint" />
            <mxPoint x="106.97999999999993" y="-98.99999999999989" as="targetPoint" />
          </mxGeometry>
        </mxCell>
        <mxCell id="cPXVCGKTlWXcmNsY_Yiw-1" value="" style="endArrow=none;html=1;rounded=0;strokeColor=default;align=center;verticalAlign=middle;fontFamily=Helvetica;fontSize=11;fontColor=default;labelBackgroundColor=default;edgeStyle=orthogonalEdgeStyle;" parent="1" edge="1">
          <mxGeometry width="50" height="50" relative="1" as="geometry">
            <mxPoint x="83.02999999999977" y="-98.99999999999989" as="sourcePoint" />
            <mxPoint x="116.97999999999993" y="-98.99999999999989" as="targetPoint" />
          </mxGeometry>
        </mxCell>
        <mxCell id="cPXVCGKTlWXcmNsY_Yiw-2" value="" style="endArrow=none;html=1;rounded=0;strokeColor=default;align=center;verticalAlign=middle;fontFamily=Helvetica;fontSize=11;fontColor=default;labelBackgroundColor=default;edgeStyle=orthogonalEdgeStyle;" parent="1" edge="1">
          <mxGeometry width="50" height="50" relative="1" as="geometry">
            <mxPoint x="67.02999999999977" y="22.000000000000114" as="sourcePoint" />
            <mxPoint x="100.97999999999993" y="22.000000000000114" as="targetPoint" />
          </mxGeometry>
        </mxCell>
        <mxCell id="cPXVCGKTlWXcmNsY_Yiw-3" value="" style="endArrow=none;html=1;rounded=0;strokeColor=default;align=center;verticalAlign=middle;fontFamily=Helvetica;fontSize=11;fontColor=default;labelBackgroundColor=default;edgeStyle=orthogonalEdgeStyle;" parent="1" edge="1">
          <mxGeometry width="50" height="50" relative="1" as="geometry">
            <mxPoint x="88.02999999999977" y="22.000000000000114" as="sourcePoint" />
            <mxPoint x="121.97999999999993" y="22.000000000000114" as="targetPoint" />
          </mxGeometry>
        </mxCell>
        <mxCell id="cPXVCGKTlWXcmNsY_Yiw-4" value="" style="endArrow=none;html=1;rounded=0;strokeColor=default;align=center;verticalAlign=middle;fontFamily=Helvetica;fontSize=11;fontColor=default;labelBackgroundColor=default;edgeStyle=orthogonalEdgeStyle;" parent="1" edge="1">
          <mxGeometry width="50" height="50" relative="1" as="geometry">
            <mxPoint x="74.04999999999978" y="142.0000000000001" as="sourcePoint" />
            <mxPoint x="107.99999999999994" y="142.0000000000001" as="targetPoint" />
          </mxGeometry>
        </mxCell>
        <mxCell id="cPXVCGKTlWXcmNsY_Yiw-5" value="" style="endArrow=none;html=1;rounded=0;strokeColor=default;align=center;verticalAlign=middle;fontFamily=Helvetica;fontSize=11;fontColor=default;labelBackgroundColor=default;edgeStyle=orthogonalEdgeStyle;" parent="1" edge="1">
          <mxGeometry width="50" height="50" relative="1" as="geometry">
            <mxPoint x="86.04999999999978" y="142.0000000000001" as="sourcePoint" />
            <mxPoint x="119.99999999999994" y="142.0000000000001" as="targetPoint" />
          </mxGeometry>
        </mxCell>
        <mxCell id="cPXVCGKTlWXcmNsY_Yiw-6" value="" style="endArrow=none;html=1;rounded=0;strokeColor=default;align=center;verticalAlign=middle;fontFamily=Helvetica;fontSize=11;fontColor=default;labelBackgroundColor=default;edgeStyle=orthogonalEdgeStyle;" parent="1" edge="1">
          <mxGeometry width="50" height="50" relative="1" as="geometry">
            <mxPoint x="177.04999999999978" y="142.0000000000001" as="sourcePoint" />
            <mxPoint x="210.99999999999994" y="142.0000000000001" as="targetPoint" />
          </mxGeometry>
        </mxCell>
        <mxCell id="cPXVCGKTlWXcmNsY_Yiw-7" value="" style="endArrow=none;html=1;rounded=0;strokeColor=default;align=center;verticalAlign=middle;fontFamily=Helvetica;fontSize=11;fontColor=default;labelBackgroundColor=default;edgeStyle=orthogonalEdgeStyle;" parent="1" edge="1">
          <mxGeometry width="50" height="50" relative="1" as="geometry">
            <mxPoint x="198.04999999999978" y="142.0000000000001" as="sourcePoint" />
            <mxPoint x="231.99999999999994" y="142.0000000000001" as="targetPoint" />
          </mxGeometry>
        </mxCell>
        <mxCell id="cPXVCGKTlWXcmNsY_Yiw-8" value="" style="endArrow=none;html=1;rounded=0;strokeColor=default;align=center;verticalAlign=middle;fontFamily=Helvetica;fontSize=11;fontColor=default;labelBackgroundColor=default;edgeStyle=orthogonalEdgeStyle;" parent="1" edge="1">
          <mxGeometry width="50" height="50" relative="1" as="geometry">
            <mxPoint x="66.52999999999977" y="262.0000000000001" as="sourcePoint" />
            <mxPoint x="100.47999999999993" y="262.0000000000001" as="targetPoint" />
          </mxGeometry>
        </mxCell>
        <mxCell id="cPXVCGKTlWXcmNsY_Yiw-9" value="" style="endArrow=none;html=1;rounded=0;strokeColor=default;align=center;verticalAlign=middle;fontFamily=Helvetica;fontSize=11;fontColor=default;labelBackgroundColor=default;edgeStyle=orthogonalEdgeStyle;" parent="1" edge="1">
          <mxGeometry width="50" height="50" relative="1" as="geometry">
            <mxPoint x="87.52999999999977" y="262.0000000000001" as="sourcePoint" />
            <mxPoint x="121.47999999999993" y="262.0000000000001" as="targetPoint" />
          </mxGeometry>
        </mxCell>
        <mxCell id="cPXVCGKTlWXcmNsY_Yiw-10" value="" style="endArrow=none;html=1;rounded=0;strokeColor=default;align=center;verticalAlign=middle;fontFamily=Helvetica;fontSize=11;fontColor=default;labelBackgroundColor=default;edgeStyle=orthogonalEdgeStyle;" parent="1" edge="1">
          <mxGeometry width="50" height="50" relative="1" as="geometry">
            <mxPoint x="182.52999999999977" y="262.0000000000001" as="sourcePoint" />
            <mxPoint x="216.47999999999993" y="262.0000000000001" as="targetPoint" />
          </mxGeometry>
        </mxCell>
        <mxCell id="cPXVCGKTlWXcmNsY_Yiw-11" value="" style="endArrow=none;html=1;rounded=0;strokeColor=default;align=center;verticalAlign=middle;fontFamily=Helvetica;fontSize=11;fontColor=default;labelBackgroundColor=default;edgeStyle=orthogonalEdgeStyle;" parent="1" edge="1">
          <mxGeometry width="50" height="50" relative="1" as="geometry">
            <mxPoint x="195.52999999999977" y="262.0000000000001" as="sourcePoint" />
            <mxPoint x="229.47999999999993" y="262.0000000000001" as="targetPoint" />
          </mxGeometry>
        </mxCell>
        <mxCell id="cPXVCGKTlWXcmNsY_Yiw-12" value="" style="endArrow=none;html=1;rounded=0;strokeColor=default;align=center;verticalAlign=middle;fontFamily=Helvetica;fontSize=11;fontColor=default;labelBackgroundColor=default;edgeStyle=orthogonalEdgeStyle;" parent="1" edge="1">
          <mxGeometry width="50" height="50" relative="1" as="geometry">
            <mxPoint x="70.99999999999977" y="381.0000000000001" as="sourcePoint" />
            <mxPoint x="104.94999999999993" y="381.0000000000001" as="targetPoint" />
          </mxGeometry>
        </mxCell>
        <mxCell id="cPXVCGKTlWXcmNsY_Yiw-13" value="" style="endArrow=none;html=1;rounded=0;strokeColor=default;align=center;verticalAlign=middle;fontFamily=Helvetica;fontSize=11;fontColor=default;labelBackgroundColor=default;edgeStyle=orthogonalEdgeStyle;" parent="1" edge="1">
          <mxGeometry width="50" height="50" relative="1" as="geometry">
            <mxPoint x="83.99999999999977" y="381.0000000000001" as="sourcePoint" />
            <mxPoint x="117.94999999999993" y="381.0000000000001" as="targetPoint" />
          </mxGeometry>
        </mxCell>
        <mxCell id="cPXVCGKTlWXcmNsY_Yiw-14" value="" style="endArrow=none;html=1;rounded=0;strokeColor=default;align=center;verticalAlign=middle;fontFamily=Helvetica;fontSize=11;fontColor=default;labelBackgroundColor=default;edgeStyle=orthogonalEdgeStyle;" parent="1" edge="1">
          <mxGeometry width="50" height="50" relative="1" as="geometry">
            <mxPoint x="55.049999999999784" y="501.0000000000001" as="sourcePoint" />
            <mxPoint x="88.99999999999994" y="501.0000000000001" as="targetPoint" />
          </mxGeometry>
        </mxCell>
        <mxCell id="cPXVCGKTlWXcmNsY_Yiw-15" value="" style="endArrow=none;html=1;rounded=0;strokeColor=default;align=center;verticalAlign=middle;fontFamily=Helvetica;fontSize=11;fontColor=default;labelBackgroundColor=default;edgeStyle=orthogonalEdgeStyle;" parent="1" edge="1">
          <mxGeometry width="50" height="50" relative="1" as="geometry">
            <mxPoint x="68.04999999999978" y="501.0000000000001" as="sourcePoint" />
            <mxPoint x="101.99999999999994" y="501.0000000000001" as="targetPoint" />
          </mxGeometry>
        </mxCell>
        <mxCell id="cPXVCGKTlWXcmNsY_Yiw-16" value="" style="endArrow=none;html=1;rounded=0;strokeColor=default;align=center;verticalAlign=middle;fontFamily=Helvetica;fontSize=11;fontColor=default;labelBackgroundColor=default;edgeStyle=orthogonalEdgeStyle;" parent="1" edge="1">
          <mxGeometry width="50" height="50" relative="1" as="geometry">
            <mxPoint x="89.04999999999978" y="501.0000000000001" as="sourcePoint" />
            <mxPoint x="122.99999999999994" y="501.0000000000001" as="targetPoint" />
          </mxGeometry>
        </mxCell>
        <mxCell id="cPXVCGKTlWXcmNsY_Yiw-17" value="" style="endArrow=none;html=1;rounded=0;strokeColor=default;align=center;verticalAlign=middle;fontFamily=Helvetica;fontSize=11;fontColor=default;labelBackgroundColor=default;edgeStyle=orthogonalEdgeStyle;" parent="1" edge="1">
          <mxGeometry width="50" height="50" relative="1" as="geometry">
            <mxPoint x="102.04999999999978" y="501.0000000000001" as="sourcePoint" />
            <mxPoint x="135.99999999999994" y="501.0000000000001" as="targetPoint" />
          </mxGeometry>
        </mxCell>
        <mxCell id="cPXVCGKTlWXcmNsY_Yiw-18" value="" style="endArrow=none;html=1;rounded=0;strokeColor=default;align=center;verticalAlign=middle;fontFamily=Helvetica;fontSize=11;fontColor=default;labelBackgroundColor=default;edgeStyle=orthogonalEdgeStyle;" parent="1" edge="1">
          <mxGeometry width="50" height="50" relative="1" as="geometry">
            <mxPoint x="160.04999999999978" y="501.0000000000001" as="sourcePoint" />
            <mxPoint x="193.99999999999994" y="501.0000000000001" as="targetPoint" />
          </mxGeometry>
        </mxCell>
        <mxCell id="cPXVCGKTlWXcmNsY_Yiw-19" value="" style="endArrow=none;html=1;rounded=0;strokeColor=default;align=center;verticalAlign=middle;fontFamily=Helvetica;fontSize=11;fontColor=default;labelBackgroundColor=default;edgeStyle=orthogonalEdgeStyle;" parent="1" edge="1">
          <mxGeometry width="50" height="50" relative="1" as="geometry">
            <mxPoint x="173.04999999999978" y="501.0000000000001" as="sourcePoint" />
            <mxPoint x="206.99999999999994" y="501.0000000000001" as="targetPoint" />
          </mxGeometry>
        </mxCell>
        <mxCell id="cPXVCGKTlWXcmNsY_Yiw-20" value="" style="endArrow=none;html=1;rounded=0;strokeColor=default;align=center;verticalAlign=middle;fontFamily=Helvetica;fontSize=11;fontColor=default;labelBackgroundColor=default;edgeStyle=orthogonalEdgeStyle;" parent="1" edge="1">
          <mxGeometry width="50" height="50" relative="1" as="geometry">
            <mxPoint x="194.04999999999978" y="501.0000000000001" as="sourcePoint" />
            <mxPoint x="227.99999999999994" y="501.0000000000001" as="targetPoint" />
          </mxGeometry>
        </mxCell>
        <mxCell id="cPXVCGKTlWXcmNsY_Yiw-21" value="" style="endArrow=none;html=1;rounded=0;strokeColor=default;align=center;verticalAlign=middle;fontFamily=Helvetica;fontSize=11;fontColor=default;labelBackgroundColor=default;edgeStyle=orthogonalEdgeStyle;" parent="1" edge="1">
          <mxGeometry width="50" height="50" relative="1" as="geometry">
            <mxPoint x="207.04999999999978" y="501.0000000000001" as="sourcePoint" />
            <mxPoint x="240.99999999999994" y="501.0000000000001" as="targetPoint" />
          </mxGeometry>
        </mxCell>
        <mxCell id="cPXVCGKTlWXcmNsY_Yiw-22" value="" style="endArrow=none;html=1;rounded=0;strokeColor=default;align=center;verticalAlign=middle;fontFamily=Helvetica;fontSize=11;fontColor=default;labelBackgroundColor=default;edgeStyle=orthogonalEdgeStyle;" parent="1" edge="1">
          <mxGeometry width="50" height="50" relative="1" as="geometry">
            <mxPoint x="312.0499999999998" y="502.0000000000001" as="sourcePoint" />
            <mxPoint x="345.99999999999994" y="502.0000000000001" as="targetPoint" />
          </mxGeometry>
        </mxCell>
        <mxCell id="cPXVCGKTlWXcmNsY_Yiw-23" value="" style="endArrow=none;html=1;rounded=0;strokeColor=default;align=center;verticalAlign=middle;fontFamily=Helvetica;fontSize=11;fontColor=default;labelBackgroundColor=default;edgeStyle=orthogonalEdgeStyle;" parent="1" edge="1">
          <mxGeometry width="50" height="50" relative="1" as="geometry">
            <mxPoint x="325.0499999999998" y="502.0000000000001" as="sourcePoint" />
            <mxPoint x="358.99999999999994" y="502.0000000000001" as="targetPoint" />
          </mxGeometry>
        </mxCell>
        <mxCell id="cPXVCGKTlWXcmNsY_Yiw-24" value="" style="endArrow=none;html=1;rounded=0;strokeColor=default;align=center;verticalAlign=middle;fontFamily=Helvetica;fontSize=11;fontColor=default;labelBackgroundColor=default;edgeStyle=orthogonalEdgeStyle;" parent="1" edge="1">
          <mxGeometry width="50" height="50" relative="1" as="geometry">
            <mxPoint x="346.0499999999998" y="502.0000000000001" as="sourcePoint" />
            <mxPoint x="379.99999999999994" y="502.0000000000001" as="targetPoint" />
          </mxGeometry>
        </mxCell>
        <mxCell id="cPXVCGKTlWXcmNsY_Yiw-25" value="" style="endArrow=none;html=1;rounded=0;strokeColor=default;align=center;verticalAlign=middle;fontFamily=Helvetica;fontSize=11;fontColor=default;labelBackgroundColor=default;edgeStyle=orthogonalEdgeStyle;" parent="1" edge="1">
          <mxGeometry width="50" height="50" relative="1" as="geometry">
            <mxPoint x="363.0499999999998" y="502.0000000000001" as="sourcePoint" />
            <mxPoint x="396.99999999999994" y="502.0000000000001" as="targetPoint" />
          </mxGeometry>
        </mxCell>
        <mxCell id="cPXVCGKTlWXcmNsY_Yiw-30" value="" style="endArrow=none;html=1;rounded=0;strokeColor=default;align=center;verticalAlign=middle;fontFamily=Helvetica;fontSize=11;fontColor=default;labelBackgroundColor=default;edgeStyle=orthogonalEdgeStyle;" parent="1" edge="1">
          <mxGeometry width="50" height="50" relative="1" as="geometry">
            <mxPoint x="487.9999999999998" y="501.0000000000001" as="sourcePoint" />
            <mxPoint x="521.9499999999999" y="501.0000000000001" as="targetPoint" />
          </mxGeometry>
        </mxCell>
        <mxCell id="cPXVCGKTlWXcmNsY_Yiw-31" value="" style="endArrow=none;html=1;rounded=0;strokeColor=default;align=center;verticalAlign=middle;fontFamily=Helvetica;fontSize=11;fontColor=default;labelBackgroundColor=default;edgeStyle=orthogonalEdgeStyle;" parent="1" edge="1">
          <mxGeometry width="50" height="50" relative="1" as="geometry">
            <mxPoint x="500.9999999999998" y="501.0000000000001" as="sourcePoint" />
            <mxPoint x="534.9499999999999" y="501.0000000000001" as="targetPoint" />
          </mxGeometry>
        </mxCell>
        <mxCell id="cPXVCGKTlWXcmNsY_Yiw-32" value="" style="endArrow=none;html=1;rounded=0;strokeColor=default;align=center;verticalAlign=middle;fontFamily=Helvetica;fontSize=11;fontColor=default;labelBackgroundColor=default;edgeStyle=orthogonalEdgeStyle;" parent="1" edge="1">
          <mxGeometry width="50" height="50" relative="1" as="geometry">
            <mxPoint x="505.9999999999998" y="501.0000000000001" as="sourcePoint" />
            <mxPoint x="539.9499999999999" y="501.0000000000001" as="targetPoint" />
          </mxGeometry>
        </mxCell>
        <mxCell id="cPXVCGKTlWXcmNsY_Yiw-33" value="" style="endArrow=none;html=1;rounded=0;strokeColor=default;align=center;verticalAlign=middle;fontFamily=Helvetica;fontSize=11;fontColor=default;labelBackgroundColor=default;edgeStyle=orthogonalEdgeStyle;" parent="1" edge="1">
          <mxGeometry width="50" height="50" relative="1" as="geometry">
            <mxPoint x="499.9999999999998" y="501.0000000000001" as="sourcePoint" />
            <mxPoint x="533.9499999999999" y="501.0000000000001" as="targetPoint" />
          </mxGeometry>
        </mxCell>
        <mxCell id="cPXVCGKTlWXcmNsY_Yiw-34" value="" style="endArrow=none;html=1;rounded=0;strokeColor=default;align=center;verticalAlign=middle;fontFamily=Helvetica;fontSize=11;fontColor=default;labelBackgroundColor=default;edgeStyle=orthogonalEdgeStyle;" parent="1" edge="1">
          <mxGeometry width="50" height="50" relative="1" as="geometry">
            <mxPoint x="577.9999999999998" y="502.0000000000001" as="sourcePoint" />
            <mxPoint x="611.9499999999999" y="502.0000000000001" as="targetPoint" />
          </mxGeometry>
        </mxCell>
        <mxCell id="cPXVCGKTlWXcmNsY_Yiw-35" value="" style="endArrow=none;html=1;rounded=0;strokeColor=default;align=center;verticalAlign=middle;fontFamily=Helvetica;fontSize=11;fontColor=default;labelBackgroundColor=default;edgeStyle=orthogonalEdgeStyle;" parent="1" edge="1">
          <mxGeometry width="50" height="50" relative="1" as="geometry">
            <mxPoint x="590.9999999999998" y="502.0000000000001" as="sourcePoint" />
            <mxPoint x="624.9499999999999" y="502.0000000000001" as="targetPoint" />
          </mxGeometry>
        </mxCell>
        <mxCell id="cPXVCGKTlWXcmNsY_Yiw-36" value="" style="endArrow=none;html=1;rounded=0;strokeColor=default;align=center;verticalAlign=middle;fontFamily=Helvetica;fontSize=11;fontColor=default;labelBackgroundColor=default;edgeStyle=orthogonalEdgeStyle;" parent="1" edge="1">
          <mxGeometry width="50" height="50" relative="1" as="geometry">
            <mxPoint x="611.9999999999998" y="502.0000000000001" as="sourcePoint" />
            <mxPoint x="645.9499999999999" y="502.0000000000001" as="targetPoint" />
          </mxGeometry>
        </mxCell>
        <mxCell id="cPXVCGKTlWXcmNsY_Yiw-37" value="" style="endArrow=none;html=1;rounded=0;strokeColor=default;align=center;verticalAlign=middle;fontFamily=Helvetica;fontSize=11;fontColor=default;labelBackgroundColor=default;edgeStyle=orthogonalEdgeStyle;" parent="1" edge="1">
          <mxGeometry width="50" height="50" relative="1" as="geometry">
            <mxPoint x="627.9999999999998" y="502.0000000000001" as="sourcePoint" />
            <mxPoint x="661.9499999999999" y="502.0000000000001" as="targetPoint" />
          </mxGeometry>
        </mxCell>
        <mxCell id="cPXVCGKTlWXcmNsY_Yiw-38" value="" style="endArrow=none;html=1;rounded=0;strokeColor=default;align=center;verticalAlign=middle;fontFamily=Helvetica;fontSize=11;fontColor=default;labelBackgroundColor=default;edgeStyle=orthogonalEdgeStyle;" parent="1" edge="1">
          <mxGeometry width="50" height="50" relative="1" as="geometry">
            <mxPoint x="61.04999999999973" y="621.8400000000001" as="sourcePoint" />
            <mxPoint x="94.99999999999989" y="621.8400000000001" as="targetPoint" />
          </mxGeometry>
        </mxCell>
        <mxCell id="cPXVCGKTlWXcmNsY_Yiw-39" value="" style="endArrow=none;html=1;rounded=0;strokeColor=default;align=center;verticalAlign=middle;fontFamily=Helvetica;fontSize=11;fontColor=default;labelBackgroundColor=default;edgeStyle=orthogonalEdgeStyle;" parent="1" edge="1">
          <mxGeometry width="50" height="50" relative="1" as="geometry">
            <mxPoint x="74.04999999999973" y="621.8400000000001" as="sourcePoint" />
            <mxPoint x="107.99999999999989" y="621.8400000000001" as="targetPoint" />
          </mxGeometry>
        </mxCell>
        <mxCell id="cPXVCGKTlWXcmNsY_Yiw-40" value="" style="endArrow=none;html=1;rounded=0;strokeColor=default;align=center;verticalAlign=middle;fontFamily=Helvetica;fontSize=11;fontColor=default;labelBackgroundColor=default;edgeStyle=orthogonalEdgeStyle;" parent="1" edge="1">
          <mxGeometry width="50" height="50" relative="1" as="geometry">
            <mxPoint x="95.04999999999973" y="621.8400000000001" as="sourcePoint" />
            <mxPoint x="128.9999999999999" y="621.8400000000001" as="targetPoint" />
          </mxGeometry>
        </mxCell>
        <mxCell id="cPXVCGKTlWXcmNsY_Yiw-41" value="" style="endArrow=none;html=1;rounded=0;strokeColor=default;align=center;verticalAlign=middle;fontFamily=Helvetica;fontSize=11;fontColor=default;labelBackgroundColor=default;edgeStyle=orthogonalEdgeStyle;" parent="1" edge="1">
          <mxGeometry width="50" height="50" relative="1" as="geometry">
            <mxPoint x="74.04999999999973" y="741.0000000000001" as="sourcePoint" />
            <mxPoint x="107.99999999999989" y="741.0000000000001" as="targetPoint" />
          </mxGeometry>
        </mxCell>
        <mxCell id="cPXVCGKTlWXcmNsY_Yiw-42" value="" style="endArrow=none;html=1;rounded=0;strokeColor=default;align=center;verticalAlign=middle;fontFamily=Helvetica;fontSize=11;fontColor=default;labelBackgroundColor=default;edgeStyle=orthogonalEdgeStyle;" parent="1" edge="1">
          <mxGeometry width="50" height="50" relative="1" as="geometry">
            <mxPoint x="81.04999999999973" y="741.0000000000001" as="sourcePoint" />
            <mxPoint x="114.99999999999989" y="741.0000000000001" as="targetPoint" />
          </mxGeometry>
        </mxCell>
        <mxCell id="cPXVCGKTlWXcmNsY_Yiw-43" value="" style="endArrow=none;html=1;rounded=0;strokeColor=default;align=center;verticalAlign=middle;fontFamily=Helvetica;fontSize=11;fontColor=default;labelBackgroundColor=default;edgeStyle=orthogonalEdgeStyle;" parent="1" edge="1">
          <mxGeometry width="50" height="50" relative="1" as="geometry">
            <mxPoint x="80.04999999999973" y="741.0000000000001" as="sourcePoint" />
            <mxPoint x="113.99999999999989" y="741.0000000000001" as="targetPoint" />
          </mxGeometry>
        </mxCell>
        <mxCell id="cPXVCGKTlWXcmNsY_Yiw-44" value="" style="endArrow=none;html=1;rounded=0;strokeColor=default;align=center;verticalAlign=middle;fontFamily=Helvetica;fontSize=11;fontColor=default;labelBackgroundColor=default;edgeStyle=orthogonalEdgeStyle;" parent="1" edge="1">
          <mxGeometry width="50" height="50" relative="1" as="geometry">
            <mxPoint x="66.04999999999973" y="861.0000000000001" as="sourcePoint" />
            <mxPoint x="99.99999999999989" y="861.0000000000001" as="targetPoint" />
          </mxGeometry>
        </mxCell>
        <mxCell id="cPXVCGKTlWXcmNsY_Yiw-45" value="" style="endArrow=none;html=1;rounded=0;strokeColor=default;align=center;verticalAlign=middle;fontFamily=Helvetica;fontSize=11;fontColor=default;labelBackgroundColor=default;edgeStyle=orthogonalEdgeStyle;" parent="1" edge="1">
          <mxGeometry width="50" height="50" relative="1" as="geometry">
            <mxPoint x="75.04999999999973" y="861.0000000000001" as="sourcePoint" />
            <mxPoint x="108.99999999999989" y="861.0000000000001" as="targetPoint" />
          </mxGeometry>
        </mxCell>
        <mxCell id="cPXVCGKTlWXcmNsY_Yiw-46" value="" style="endArrow=none;html=1;rounded=0;strokeColor=default;align=center;verticalAlign=middle;fontFamily=Helvetica;fontSize=11;fontColor=default;labelBackgroundColor=default;edgeStyle=orthogonalEdgeStyle;" parent="1" edge="1">
          <mxGeometry width="50" height="50" relative="1" as="geometry">
            <mxPoint x="90.04999999999973" y="861.0000000000001" as="sourcePoint" />
            <mxPoint x="123.99999999999989" y="861.0000000000001" as="targetPoint" />
          </mxGeometry>
        </mxCell>
        <mxCell id="cPXVCGKTlWXcmNsY_Yiw-47" value="" style="endArrow=none;html=1;rounded=0;strokeColor=default;align=center;verticalAlign=middle;fontFamily=Helvetica;fontSize=11;fontColor=default;labelBackgroundColor=default;edgeStyle=orthogonalEdgeStyle;" parent="1" edge="1">
          <mxGeometry width="50" height="50" relative="1" as="geometry">
            <mxPoint x="72.04999999999973" y="870.0000000000001" as="sourcePoint" />
            <mxPoint x="105.99999999999989" y="870.0000000000001" as="targetPoint" />
          </mxGeometry>
        </mxCell>
        <mxCell id="cPXVCGKTlWXcmNsY_Yiw-48" value="" style="endArrow=none;html=1;rounded=0;strokeColor=default;align=center;verticalAlign=middle;fontFamily=Helvetica;fontSize=11;fontColor=default;labelBackgroundColor=default;edgeStyle=orthogonalEdgeStyle;" parent="1" edge="1">
          <mxGeometry width="50" height="50" relative="1" as="geometry">
            <mxPoint x="85.04999999999973" y="870.0000000000001" as="sourcePoint" />
            <mxPoint x="118.99999999999989" y="870.0000000000001" as="targetPoint" />
          </mxGeometry>
        </mxCell>
        <mxCell id="cPXVCGKTlWXcmNsY_Yiw-49" value="" style="endArrow=none;html=1;rounded=0;strokeColor=default;align=center;verticalAlign=middle;fontFamily=Helvetica;fontSize=11;fontColor=default;labelBackgroundColor=default;edgeStyle=orthogonalEdgeStyle;" parent="1" edge="1">
          <mxGeometry width="50" height="50" relative="1" as="geometry">
            <mxPoint x="106.04999999999973" y="870.0000000000001" as="sourcePoint" />
            <mxPoint x="139.9999999999999" y="870.0000000000001" as="targetPoint" />
          </mxGeometry>
        </mxCell>
        <mxCell id="cPXVCGKTlWXcmNsY_Yiw-50" value="" style="endArrow=none;html=1;rounded=0;strokeColor=default;align=center;verticalAlign=middle;fontFamily=Helvetica;fontSize=11;fontColor=default;labelBackgroundColor=default;edgeStyle=orthogonalEdgeStyle;" parent="1" edge="1">
          <mxGeometry width="50" height="50" relative="1" as="geometry">
            <mxPoint x="185.04999999999973" y="862.0000000000001" as="sourcePoint" />
            <mxPoint x="218.9999999999999" y="862.0000000000001" as="targetPoint" />
          </mxGeometry>
        </mxCell>
        <mxCell id="cPXVCGKTlWXcmNsY_Yiw-51" value="" style="endArrow=none;html=1;rounded=0;strokeColor=default;align=center;verticalAlign=middle;fontFamily=Helvetica;fontSize=11;fontColor=default;labelBackgroundColor=default;edgeStyle=orthogonalEdgeStyle;" parent="1" edge="1">
          <mxGeometry width="50" height="50" relative="1" as="geometry">
            <mxPoint x="192.04999999999973" y="862.0000000000001" as="sourcePoint" />
            <mxPoint x="225.9999999999999" y="862.0000000000001" as="targetPoint" />
          </mxGeometry>
        </mxCell>
        <mxCell id="cPXVCGKTlWXcmNsY_Yiw-52" value="" style="endArrow=none;html=1;rounded=0;strokeColor=default;align=center;verticalAlign=middle;fontFamily=Helvetica;fontSize=11;fontColor=default;labelBackgroundColor=default;edgeStyle=orthogonalEdgeStyle;" parent="1" edge="1">
          <mxGeometry width="50" height="50" relative="1" as="geometry">
            <mxPoint x="191.04999999999973" y="862.0000000000001" as="sourcePoint" />
            <mxPoint x="224.9999999999999" y="862.0000000000001" as="targetPoint" />
          </mxGeometry>
        </mxCell>
        <mxCell id="cPXVCGKTlWXcmNsY_Yiw-53" value="" style="endArrow=none;html=1;rounded=0;strokeColor=default;align=center;verticalAlign=middle;fontFamily=Helvetica;fontSize=11;fontColor=default;labelBackgroundColor=default;edgeStyle=orthogonalEdgeStyle;" parent="1" edge="1">
          <mxGeometry width="50" height="50" relative="1" as="geometry">
            <mxPoint x="334.9999999999997" y="863.0000000000001" as="sourcePoint" />
            <mxPoint x="368.9499999999999" y="863.0000000000001" as="targetPoint" />
          </mxGeometry>
        </mxCell>
        <mxCell id="cPXVCGKTlWXcmNsY_Yiw-54" value="" style="endArrow=none;html=1;rounded=0;strokeColor=default;align=center;verticalAlign=middle;fontFamily=Helvetica;fontSize=11;fontColor=default;labelBackgroundColor=default;edgeStyle=orthogonalEdgeStyle;" parent="1" edge="1">
          <mxGeometry width="50" height="50" relative="1" as="geometry">
            <mxPoint x="342.9999999999997" y="863.0000000000001" as="sourcePoint" />
            <mxPoint x="376.9499999999999" y="863.0000000000001" as="targetPoint" />
          </mxGeometry>
        </mxCell>
        <mxCell id="cPXVCGKTlWXcmNsY_Yiw-55" value="" style="endArrow=none;html=1;rounded=0;strokeColor=default;align=center;verticalAlign=middle;fontFamily=Helvetica;fontSize=11;fontColor=default;labelBackgroundColor=default;edgeStyle=orthogonalEdgeStyle;" parent="1" edge="1">
          <mxGeometry width="50" height="50" relative="1" as="geometry">
            <mxPoint x="338.9999999999997" y="863.0000000000001" as="sourcePoint" />
            <mxPoint x="372.9499999999999" y="863.0000000000001" as="targetPoint" />
          </mxGeometry>
        </mxCell>
        <mxCell id="cPXVCGKTlWXcmNsY_Yiw-57" value="" style="endArrow=none;html=1;rounded=0;strokeColor=default;align=center;verticalAlign=middle;fontFamily=Helvetica;fontSize=11;fontColor=default;labelBackgroundColor=default;edgeStyle=orthogonalEdgeStyle;" parent="1" edge="1">
          <mxGeometry width="50" height="50" relative="1" as="geometry">
            <mxPoint x="444.9999999999997" y="862.0000000000001" as="sourcePoint" />
            <mxPoint x="478.9499999999999" y="862.0000000000001" as="targetPoint" />
          </mxGeometry>
        </mxCell>
        <mxCell id="cPXVCGKTlWXcmNsY_Yiw-58" value="" style="endArrow=none;html=1;rounded=0;strokeColor=default;align=center;verticalAlign=middle;fontFamily=Helvetica;fontSize=11;fontColor=default;labelBackgroundColor=default;edgeStyle=orthogonalEdgeStyle;" parent="1" edge="1">
          <mxGeometry width="50" height="50" relative="1" as="geometry">
            <mxPoint x="450.9999999999997" y="862.0000000000001" as="sourcePoint" />
            <mxPoint x="484.9499999999999" y="862.0000000000001" as="targetPoint" />
          </mxGeometry>
        </mxCell>
        <mxCell id="cPXVCGKTlWXcmNsY_Yiw-59" value="" style="endArrow=none;html=1;rounded=0;strokeColor=default;align=center;verticalAlign=middle;fontFamily=Helvetica;fontSize=11;fontColor=default;labelBackgroundColor=default;edgeStyle=orthogonalEdgeStyle;" parent="1" edge="1">
          <mxGeometry width="50" height="50" relative="1" as="geometry">
            <mxPoint x="459.9999999999997" y="862.0000000000001" as="sourcePoint" />
            <mxPoint x="481" y="862" as="targetPoint" />
          </mxGeometry>
        </mxCell>
        <mxCell id="cPXVCGKTlWXcmNsY_Yiw-60" value="" style="endArrow=none;html=1;rounded=0;strokeColor=default;align=center;verticalAlign=middle;fontFamily=Helvetica;fontSize=11;fontColor=default;labelBackgroundColor=default;edgeStyle=orthogonalEdgeStyle;" parent="1" edge="1">
          <mxGeometry width="50" height="50" relative="1" as="geometry">
            <mxPoint x="67.99999999999973" y="981.0000000000001" as="sourcePoint" />
            <mxPoint x="101.94999999999989" y="981.0000000000001" as="targetPoint" />
          </mxGeometry>
        </mxCell>
        <mxCell id="cPXVCGKTlWXcmNsY_Yiw-61" value="" style="endArrow=none;html=1;rounded=0;strokeColor=default;align=center;verticalAlign=middle;fontFamily=Helvetica;fontSize=11;fontColor=default;labelBackgroundColor=default;edgeStyle=orthogonalEdgeStyle;" parent="1" edge="1">
          <mxGeometry width="50" height="50" relative="1" as="geometry">
            <mxPoint x="85.99999999999973" y="981.0000000000001" as="sourcePoint" />
            <mxPoint x="119.94999999999989" y="981.0000000000001" as="targetPoint" />
          </mxGeometry>
        </mxCell>
        <mxCell id="cPXVCGKTlWXcmNsY_Yiw-62" value="" style="endArrow=none;html=1;rounded=0;strokeColor=default;align=center;verticalAlign=middle;fontFamily=Helvetica;fontSize=11;fontColor=default;labelBackgroundColor=default;edgeStyle=orthogonalEdgeStyle;" parent="1" edge="1">
          <mxGeometry width="50" height="50" relative="1" as="geometry">
            <mxPoint x="184.99999999999972" y="982.0000000000001" as="sourcePoint" />
            <mxPoint x="218.94999999999987" y="982.0000000000001" as="targetPoint" />
          </mxGeometry>
        </mxCell>
        <mxCell id="cPXVCGKTlWXcmNsY_Yiw-63" value="" style="endArrow=none;html=1;rounded=0;strokeColor=default;align=center;verticalAlign=middle;fontFamily=Helvetica;fontSize=11;fontColor=default;labelBackgroundColor=default;edgeStyle=orthogonalEdgeStyle;" parent="1" edge="1">
          <mxGeometry width="50" height="50" relative="1" as="geometry">
            <mxPoint x="191.99999999999972" y="982.0000000000001" as="sourcePoint" />
            <mxPoint x="225.94999999999987" y="982.0000000000001" as="targetPoint" />
          </mxGeometry>
        </mxCell>
        <mxCell id="cPXVCGKTlWXcmNsY_Yiw-64" value="" style="endArrow=none;html=1;rounded=0;strokeColor=default;align=center;verticalAlign=middle;fontFamily=Helvetica;fontSize=11;fontColor=default;labelBackgroundColor=default;edgeStyle=orthogonalEdgeStyle;" parent="1" edge="1">
          <mxGeometry width="50" height="50" relative="1" as="geometry">
            <mxPoint x="344.9499999999997" y="983.0000000000001" as="sourcePoint" />
            <mxPoint x="378.89999999999986" y="983.0000000000001" as="targetPoint" />
          </mxGeometry>
        </mxCell>
        <mxCell id="cPXVCGKTlWXcmNsY_Yiw-65" value="" style="endArrow=none;html=1;rounded=0;strokeColor=default;align=center;verticalAlign=middle;fontFamily=Helvetica;fontSize=11;fontColor=default;labelBackgroundColor=default;edgeStyle=orthogonalEdgeStyle;" parent="1" edge="1">
          <mxGeometry width="50" height="50" relative="1" as="geometry">
            <mxPoint x="444.9499999999997" y="982.0000000000001" as="sourcePoint" />
            <mxPoint x="478.89999999999986" y="982.0000000000001" as="targetPoint" />
          </mxGeometry>
        </mxCell>
        <mxCell id="cPXVCGKTlWXcmNsY_Yiw-66" value="" style="endArrow=none;html=1;rounded=0;strokeColor=default;align=center;verticalAlign=middle;fontFamily=Helvetica;fontSize=11;fontColor=default;labelBackgroundColor=default;edgeStyle=orthogonalEdgeStyle;" parent="1" edge="1">
          <mxGeometry width="50" height="50" relative="1" as="geometry">
            <mxPoint x="450.9499999999997" y="982.0000000000001" as="sourcePoint" />
            <mxPoint x="484.89999999999986" y="982.0000000000001" as="targetPoint" />
          </mxGeometry>
        </mxCell>
        <mxCell id="cPXVCGKTlWXcmNsY_Yiw-67" value="" style="endArrow=none;html=1;rounded=0;strokeColor=default;align=center;verticalAlign=middle;fontFamily=Helvetica;fontSize=11;fontColor=default;labelBackgroundColor=default;edgeStyle=orthogonalEdgeStyle;" parent="1" edge="1">
          <mxGeometry width="50" height="50" relative="1" as="geometry">
            <mxPoint x="329.02999999999975" y="983.0000000000001" as="sourcePoint" />
            <mxPoint x="362.9799999999999" y="983.0000000000001" as="targetPoint" />
          </mxGeometry>
        </mxCell>
        <mxCell id="cPXVCGKTlWXcmNsY_Yiw-68" value="" style="endArrow=none;html=1;rounded=0;strokeColor=default;align=center;verticalAlign=middle;fontFamily=Helvetica;fontSize=11;fontColor=default;labelBackgroundColor=default;edgeStyle=orthogonalEdgeStyle;" parent="1" edge="1">
          <mxGeometry width="50" height="50" relative="1" as="geometry">
            <mxPoint x="68.99999999999973" y="1102" as="sourcePoint" />
            <mxPoint x="102.94999999999989" y="1102" as="targetPoint" />
          </mxGeometry>
        </mxCell>
        <mxCell id="cPXVCGKTlWXcmNsY_Yiw-69" value="" style="endArrow=none;html=1;rounded=0;strokeColor=default;align=center;verticalAlign=middle;fontFamily=Helvetica;fontSize=11;fontColor=default;labelBackgroundColor=default;edgeStyle=orthogonalEdgeStyle;" parent="1" edge="1">
          <mxGeometry width="50" height="50" relative="1" as="geometry">
            <mxPoint x="86.99999999999973" y="1102" as="sourcePoint" />
            <mxPoint x="120.94999999999987" y="1102" as="targetPoint" />
          </mxGeometry>
        </mxCell>
        <mxCell id="cPXVCGKTlWXcmNsY_Yiw-70" value="" style="endArrow=none;html=1;rounded=0;strokeColor=default;align=center;verticalAlign=middle;fontFamily=Helvetica;fontSize=11;fontColor=default;labelBackgroundColor=default;edgeStyle=orthogonalEdgeStyle;" parent="1" edge="1">
          <mxGeometry width="50" height="50" relative="1" as="geometry">
            <mxPoint x="68.99999999999973" y="1221" as="sourcePoint" />
            <mxPoint x="102.94999999999989" y="1221" as="targetPoint" />
          </mxGeometry>
        </mxCell>
        <mxCell id="cPXVCGKTlWXcmNsY_Yiw-71" value="" style="endArrow=none;html=1;rounded=0;strokeColor=default;align=center;verticalAlign=middle;fontFamily=Helvetica;fontSize=11;fontColor=default;labelBackgroundColor=default;edgeStyle=orthogonalEdgeStyle;" parent="1" edge="1">
          <mxGeometry width="50" height="50" relative="1" as="geometry">
            <mxPoint x="86.99999999999973" y="1221" as="sourcePoint" />
            <mxPoint x="120.94999999999987" y="1221" as="targetPoint" />
          </mxGeometry>
        </mxCell>
        <mxCell id="cPXVCGKTlWXcmNsY_Yiw-72" value="" style="endArrow=none;html=1;rounded=0;strokeColor=default;align=center;verticalAlign=middle;fontFamily=Helvetica;fontSize=11;fontColor=default;labelBackgroundColor=default;edgeStyle=orthogonalEdgeStyle;" parent="1" edge="1">
          <mxGeometry width="50" height="50" relative="1" as="geometry">
            <mxPoint x="178.99999999999972" y="1222" as="sourcePoint" />
            <mxPoint x="212.94999999999987" y="1222" as="targetPoint" />
          </mxGeometry>
        </mxCell>
        <mxCell id="cPXVCGKTlWXcmNsY_Yiw-73" value="" style="endArrow=none;html=1;rounded=0;strokeColor=default;align=center;verticalAlign=middle;fontFamily=Helvetica;fontSize=11;fontColor=default;labelBackgroundColor=default;edgeStyle=orthogonalEdgeStyle;" parent="1" edge="1">
          <mxGeometry width="50" height="50" relative="1" as="geometry">
            <mxPoint x="196.99999999999972" y="1222" as="sourcePoint" />
            <mxPoint x="230.94999999999987" y="1222" as="targetPoint" />
          </mxGeometry>
        </mxCell>
        <mxCell id="XW37Ndo03h5OqCdUmrzH-2" value="" style="endArrow=none;html=1;rounded=0;strokeColor=default;align=center;verticalAlign=middle;fontFamily=Helvetica;fontSize=11;fontColor=default;labelBackgroundColor=default;edgeStyle=orthogonalEdgeStyle;" edge="1" parent="1">
          <mxGeometry width="50" height="50" relative="1" as="geometry">
            <mxPoint x="69.02999999999973" y="1341" as="sourcePoint" />
            <mxPoint x="102.97999999999989" y="1341" as="targetPoint" />
          </mxGeometry>
        </mxCell>
        <mxCell id="XW37Ndo03h5OqCdUmrzH-3" value="" style="endArrow=none;html=1;rounded=0;strokeColor=default;align=center;verticalAlign=middle;fontFamily=Helvetica;fontSize=11;fontColor=default;labelBackgroundColor=default;edgeStyle=orthogonalEdgeStyle;" edge="1" parent="1">
          <mxGeometry width="50" height="50" relative="1" as="geometry">
            <mxPoint x="87.02999999999973" y="1341" as="sourcePoint" />
            <mxPoint x="120.97999999999988" y="1341" as="targetPoint" />
          </mxGeometry>
        </mxCell>
        <mxCell id="XW37Ndo03h5OqCdUmrzH-4" value="" style="endArrow=none;html=1;rounded=0;strokeColor=default;align=center;verticalAlign=middle;fontFamily=Helvetica;fontSize=11;fontColor=default;labelBackgroundColor=default;edgeStyle=orthogonalEdgeStyle;" edge="1" parent="1">
          <mxGeometry width="50" height="50" relative="1" as="geometry">
            <mxPoint x="185.02999999999972" y="1342" as="sourcePoint" />
            <mxPoint x="218.97999999999988" y="1342" as="targetPoint" />
          </mxGeometry>
        </mxCell>
        <mxCell id="XW37Ndo03h5OqCdUmrzH-5" value="" style="endArrow=none;html=1;rounded=0;strokeColor=default;align=center;verticalAlign=middle;fontFamily=Helvetica;fontSize=11;fontColor=default;labelBackgroundColor=default;edgeStyle=orthogonalEdgeStyle;" edge="1" parent="1">
          <mxGeometry width="50" height="50" relative="1" as="geometry">
            <mxPoint x="192.02999999999972" y="1342" as="sourcePoint" />
            <mxPoint x="225.97999999999988" y="1342" as="targetPoint" />
          </mxGeometry>
        </mxCell>
        <mxCell id="XW37Ndo03h5OqCdUmrzH-6" value="" style="endArrow=none;html=1;rounded=0;strokeColor=default;align=center;verticalAlign=middle;fontFamily=Helvetica;fontSize=11;fontColor=default;labelBackgroundColor=default;edgeStyle=orthogonalEdgeStyle;" edge="1" parent="1">
          <mxGeometry width="50" height="50" relative="1" as="geometry">
            <mxPoint x="288.9999999999997" y="1342" as="sourcePoint" />
            <mxPoint x="322.9499999999999" y="1342" as="targetPoint" />
          </mxGeometry>
        </mxCell>
        <mxCell id="XW37Ndo03h5OqCdUmrzH-7" value="" style="endArrow=none;html=1;rounded=0;strokeColor=default;align=center;verticalAlign=middle;fontFamily=Helvetica;fontSize=11;fontColor=default;labelBackgroundColor=default;edgeStyle=orthogonalEdgeStyle;" edge="1" parent="1">
          <mxGeometry width="50" height="50" relative="1" as="geometry">
            <mxPoint x="316.9999999999997" y="1342" as="sourcePoint" />
            <mxPoint x="350.9499999999999" y="1342" as="targetPoint" />
          </mxGeometry>
        </mxCell>
        <mxCell id="XW37Ndo03h5OqCdUmrzH-8" value="" style="endArrow=none;html=1;rounded=0;strokeColor=default;align=center;verticalAlign=middle;fontFamily=Helvetica;fontSize=11;fontColor=default;labelBackgroundColor=default;edgeStyle=orthogonalEdgeStyle;" edge="1" parent="1">
          <mxGeometry width="50" height="50" relative="1" as="geometry">
            <mxPoint x="279.9999999999997" y="1342" as="sourcePoint" />
            <mxPoint x="313.9499999999999" y="1342" as="targetPoint" />
          </mxGeometry>
        </mxCell>
      </root>
    </mxGraphModel>
  </diagram>
</mxfile>
